<?xml version="1.0" encoding="UTF-8" standalone="no"?>
<!-- Created with Inkscape (http://www.inkscape.org/) -->

<svg
   width="1300"
   height="1000"
   viewBox="0 0 343.95833 264.58333"
   version="1.1"
   id="svg1512"
   inkscape:version="1.2.1 (9c6d41e410, 2022-07-14)"
   sodipodi:docname="hero.svg"
   xmlns:inkscape="http://www.inkscape.org/namespaces/inkscape"
   xmlns:sodipodi="http://sodipodi.sourceforge.net/DTD/sodipodi-0.dtd"
   xmlns="http://www.w3.org/2000/svg"
   xmlns:svg="http://www.w3.org/2000/svg">
  <sodipodi:namedview
     id="namedview1514"
     pagecolor="#ffffff"
     bordercolor="#000000"
     borderopacity="0.25"
     inkscape:showpageshadow="2"
     inkscape:pageopacity="0.0"
     inkscape:pagecheckerboard="0"
     inkscape:deskcolor="#d1d1d1"
     inkscape:document-units="mm"
     showgrid="false"
     inkscape:zoom="0.59241723"
     inkscape:cx="23.631993"
     inkscape:cy="565.47984"
     inkscape:window-width="1584"
     inkscape:window-height="815"
     inkscape:window-x="8"
     inkscape:window-y="40"
     inkscape:window-maximized="0"
     inkscape:current-layer="layer1">
    <inkscape:grid
       type="xygrid"
       id="grid2133" />
  </sodipodi:namedview>
  <defs
     id="defs1509" />
  <g
     inkscape:label="Layer 1"
     inkscape:groupmode="layer"
     id="layer1">
    <g
       id="g1191"
       transform="matrix(0.97143188,0,0,0.96685986,-497.96274,-59.790096)">
      <path
         d="m 759.2244,162.1028 c -10.29759,0 -18.67606,-8.37742 -18.67606,-18.675 0,-10.29759 8.37847,-18.67535 18.67606,-18.67535 10.29758,0 18.67605,8.37776 18.67605,18.67535 0,10.29758 -8.37847,18.675 -18.67605,18.675 z m 0,-43.4266 c -13.67014,0 -24.7509,11.08146 -24.7509,24.7516 0,13.66978 11.08076,24.75159 24.7509,24.75159 13.67013,0 24.75089,-11.08181 24.75089,-24.75159 0,-13.67014 -11.08076,-24.7516 -24.75089,-24.7516"
         style="fill:#274ea8;fill-opacity:1;fill-rule:nonzero;stroke:none;stroke-width:0.0352778"
         id="path87" />
      <path
         d="m 764.01159,120.36495 h -9.57439 l 0.50447,-5.71747 h 8.56545 l 0.50447,5.71747"
         style="fill:#274ea8;fill-opacity:1;fill-rule:nonzero;stroke:none;stroke-width:0.0352778"
         id="path89" />
      <path
         d="m 752.00303,121.10684 -8.2938,4.7879 -2.42006,-5.20488 7.41539,-4.28131 3.29847,4.69829"
         style="fill:#274ea8;fill-opacity:1;fill-rule:nonzero;stroke:none;stroke-width:0.0352778"
         id="path91" />
      <path
         d="m 741.97356,127.75423 -4.78719,8.29275 -4.699,-3.29741 4.28272,-7.41575 5.20347,2.42041"
         style="fill:#274ea8;fill-opacity:1;fill-rule:nonzero;stroke:none;stroke-width:0.0352778"
         id="path93" />
      <path
         d="m 736.61134,138.52595 v 9.57545 l -5.71853,-0.50624 v -8.56297 l 5.71853,-0.50624"
         style="fill:#274ea8;fill-opacity:1;fill-rule:nonzero;stroke:none;stroke-width:0.0352778"
         id="path95" />
      <path
         d="m 737.35217,150.53521 4.79072,8.29275 -5.207,2.42041 -4.27919,-7.41574 4.69547,-3.29742"
         style="fill:#274ea8;fill-opacity:1;fill-rule:nonzero;stroke:none;stroke-width:0.0352778"
         id="path97" />
      <path
         d="m 744.00203,160.56469 8.29028,4.7879 -3.29494,4.69829 -7.41539,-4.28131 2.42005,-5.20488"
         style="fill:#274ea8;fill-opacity:1;fill-rule:nonzero;stroke:none;stroke-width:0.0352778"
         id="path99" />
      <path
         d="m 754.77234,165.92691 h 9.57439 l -0.50447,5.71747 h -8.56192 l -0.508,-5.71747"
         style="fill:#274ea8;fill-opacity:1;fill-rule:nonzero;stroke:none;stroke-width:0.0352778"
         id="path101" />
      <path
         d="m 766.7809,165.18502 8.2938,-4.7879 2.42006,5.20453 -7.41539,4.28166 -3.29847,-4.69829"
         style="fill:#274ea8;fill-opacity:1;fill-rule:nonzero;stroke:none;stroke-width:0.0352778"
         id="path103" />
      <path
         d="m 776.81037,158.53762 4.78719,-8.29274 4.699,3.29706 -4.27919,7.41574 -5.207,-2.42006"
         style="fill:#274ea8;fill-opacity:1;fill-rule:nonzero;stroke:none;stroke-width:0.0352778"
         id="path105" />
      <path
         d="m 782.17259,147.76591 v -9.57545 l 5.71853,0.50623 v 8.56298 l -5.71853,0.50624"
         style="fill:#274ea8;fill-opacity:1;fill-rule:nonzero;stroke:none;stroke-width:0.0352778"
         id="path107" />
      <path
         d="m 781.43176,135.75664 -4.7872,-8.29274 5.20348,-2.42041 4.28272,7.41574 -4.699,3.29741"
         style="fill:#274ea8;fill-opacity:1;fill-rule:nonzero;stroke:none;stroke-width:0.0352778"
         id="path109" />
      <path
         d="m 774.78542,125.72717 -8.2938,-4.7879 3.29847,-4.69829 7.41539,4.28131 -2.42006,5.20488"
         style="fill:#274ea8;fill-opacity:1;fill-rule:nonzero;stroke:none;stroke-width:0.0352778"
         id="path111" />
      <path
         d="m 796.71762,121.787 c -6.4135,0 -11.63108,-5.21759 -11.63108,-11.63073 0,-6.41315 5.21758,-11.630383 11.63108,-11.630383 6.40997,0 11.62756,5.217233 11.62756,11.630383 0,6.41314 -5.21759,11.63073 -11.62756,11.63073 z m 0,-27.045714 c -8.51606,0 -15.41639,6.901744 -15.41639,15.414984 0,8.51358 6.90033,15.41533 15.41639,15.41533 8.51253,0 15.41286,-6.90175 15.41286,-15.41533 0,-8.51324 -6.90033,-15.414984 -15.41286,-15.414984"
         style="fill:#274ea8;fill-opacity:1;fill-rule:nonzero;stroke:none;stroke-width:0.0352778"
         id="path113" />
      <path
         d="m 799.69859,95.79327 h -5.96547 l 0.3175,-3.560939 h 5.33047 l 0.3175,3.560939"
         style="fill:#274ea8;fill-opacity:1;fill-rule:nonzero;stroke:none;stroke-width:0.0352778"
         id="path115" />
      <path
         d="m 792.2197,96.255409 -5.16466,2.981678 -1.50989,-3.241323 4.62139,-2.666647 2.05316,2.926292"
         style="fill:#274ea8;fill-opacity:1;fill-rule:nonzero;stroke:none;stroke-width:0.0352778"
         id="path117" />
      <path
         d="m 785.97201,100.39526 -2.98097,5.16466 -2.92806,-2.05352 2.667,-4.618563 3.24203,1.507423"
         style="fill:#274ea8;fill-opacity:1;fill-rule:nonzero;stroke:none;stroke-width:0.0352778"
         id="path119" />
      <path
         d="m 782.6312,107.10368 v 5.96335 l -3.55953,-0.31538 v -5.33259 l 3.55953,-0.31538"
         style="fill:#274ea8;fill-opacity:1;fill-rule:nonzero;stroke:none;stroke-width:0.0352778"
         id="path121" />
      <path
         d="m 783.09334,114.58292 2.9845,5.16467 -3.24203,1.50742 -2.667,-4.61857 2.92453,-2.05352"
         style="fill:#274ea8;fill-opacity:1;fill-rule:nonzero;stroke:none;stroke-width:0.0352778"
         id="path123" />
      <path
         d="m 787.23495,120.8292 5.16467,2.98168 -2.05317,2.92629 -4.61786,-2.66664 1.50636,-3.24133"
         style="fill:#274ea8;fill-opacity:1;fill-rule:nonzero;stroke:none;stroke-width:0.0352778"
         id="path125" />
      <path
         d="m 793.94479,124.1686 h 5.96194 l -0.31397,3.56094 h -5.334 l -0.31397,-3.56094"
         style="fill:#274ea8;fill-opacity:1;fill-rule:nonzero;stroke:none;stroke-width:0.0352778"
         id="path127" />
      <path
         d="m 801.42368,123.70646 5.16466,-2.98168 1.50636,3.24132 -4.61786,2.66665 -2.05316,-2.92629"
         style="fill:#274ea8;fill-opacity:1;fill-rule:nonzero;stroke:none;stroke-width:0.0352778"
         id="path129" />
      <path
         d="m 807.66784,119.56661 2.9845,-5.16466 2.92453,2.05352 -2.667,4.61856 -3.24203,-1.50742"
         style="fill:#274ea8;fill-opacity:1;fill-rule:nonzero;stroke:none;stroke-width:0.0352778"
         id="path131" />
      <path
         d="m 811.00865,112.85819 v -5.96371 l 3.55953,0.31538 v 5.33295 l -3.55953,0.31538"
         style="fill:#274ea8;fill-opacity:1;fill-rule:nonzero;stroke:none;stroke-width:0.0352778"
         id="path133" />
      <path
         d="m 810.54651,105.37895 -2.98097,-5.16467 3.24202,-1.507418 2.66348,4.618568 -2.92453,2.05352"
         style="fill:#274ea8;fill-opacity:1;fill-rule:nonzero;stroke:none;stroke-width:0.0352778"
         id="path135" />
      <path
         d="m 806.4049,99.132664 -5.16467,-2.98203 2.0567,-2.925939 4.61786,2.666647 -1.50989,3.241322"
         style="fill:#274ea8;fill-opacity:1;fill-rule:nonzero;stroke:none;stroke-width:0.0352778"
         id="path137" />
      <path
         d="m 841.13234,305.86716 h -54.69467 c -3.50308,0 -6.33941,-2.83775 -6.33941,-6.33801 V 181.86082 c 0,-3.50026 2.83633,-6.338 6.33941,-6.338 h 54.69467 c 3.49956,0 6.33589,2.83774 6.33589,6.338 v 117.66833 c 0,3.50026 -2.83633,6.33801 -6.33589,6.33801"
         style="fill:#274ea8;fill-opacity:1;fill-rule:nonzero;stroke:none;stroke-width:0.0352778"
         id="path139" />
      <path
         d="m 784.19754,295.53606 h 59.17142 V 187.23045 h -59.17142 z"
         style="fill:#bfdbee;fill-opacity:1;fill-rule:nonzero;stroke:none;stroke-width:0.0352778"
         id="path141" />
      <path
         d="m 822.35045,183.09272 h -17.13441 c -0.57856,0 -1.05128,-0.47378 -1.05128,-1.05304 v 0 c 0,-0.57926 0.47272,-1.05339 1.05128,-1.05339 h 17.13441 c 0.57856,0 1.05481,0.47413 1.05481,1.05339 v 0 c 0,0.57926 -0.47625,1.05304 -1.05481,1.05304"
         style="fill:#cee4f7;fill-opacity:1;fill-rule:nonzero;stroke:none;stroke-width:0.0352778"
         id="path143" />
      <path
         d="m 834.11912,243.54967 h -40.67175 c -1.78858,0 -3.24908,-1.46227 -3.24908,-3.24944 0,-1.78753 1.4605,-3.24944 3.24908,-3.24944 h 40.67175 c 1.78859,0 3.24909,1.46191 3.24909,3.24944 0,1.78717 -1.4605,3.24944 -3.24909,3.24944"
         style="fill:#e7f1fa;fill-opacity:1;fill-rule:nonzero;stroke:none;stroke-width:0.0352778"
         id="path145" />
      <path
         d="m 834.11912,253.23095 h -40.67175 c -1.78858,0 -3.24908,-1.46227 -3.24908,-3.24944 0,-1.78717 1.4605,-3.24944 3.24908,-3.24944 h 40.67175 c 1.78859,0 3.24909,1.46227 3.24909,3.24944 0,1.78717 -1.4605,3.24944 -3.24909,3.24944"
         style="fill:#e7f1fa;fill-opacity:1;fill-rule:nonzero;stroke:none;stroke-width:0.0352778"
         id="path147" />
      <path
         d="m 825.11623,264.63484 h -22.66244 c -1.78859,0 -3.25261,-1.46191 -3.25261,-3.24943 0,-1.78718 1.46402,-3.24944 3.25261,-3.24944 h 22.66244 c 1.78506,0 3.24909,1.46226 3.24909,3.24944 0,1.78752 -1.46403,3.24943 -3.24909,3.24943"
         style="fill:#f7911d;fill-opacity:1;fill-rule:nonzero;stroke:none;stroke-width:0.0352778"
         id="path149" />
      <path
         d="m 813.78501,233.64472 c -4.5967,0 -8.65364,-2.3054 -11.07722,-5.82154 -1.49578,-2.16746 -2.3742,-4.7953 -2.3742,-7.62705 0,-7.42739 6.02192,-13.44824 13.45142,-13.44824 7.42597,0 13.44789,6.02085 13.44789,13.44824 0,2.83175 -0.87489,5.45853 -2.37067,7.626 -2.42358,3.51719 -6.48405,5.82259 -11.07722,5.82259"
         style="fill:#d4e1f5;fill-opacity:1;fill-rule:nonzero;stroke:none;stroke-width:0.0352778"
         id="path151" />
      <path
         d="m 824.86223,227.82213 c -2.42711,3.51754 -6.48405,5.82259 -11.07722,5.82259 -4.5967,0 -8.65364,-2.30505 -11.08075,-5.82154 1.70392,-4.46017 6.02192,-7.6267 11.08075,-7.6267 5.05531,0 9.37331,3.16653 11.07722,7.62565"
         style="fill:#1cb4c2;fill-opacity:1;fill-rule:nonzero;stroke:none;stroke-width:0.0352778"
         id="path153" />
      <path
         d="m 819.09432,216.59744 c 0,2.933 -2.37773,5.31037 -5.30931,5.31037 -2.93511,0 -5.31283,-2.37737 -5.31283,-5.31037 0,-2.93264 2.37772,-5.31036 5.31283,-5.31036 2.93158,0 5.30931,2.37772 5.30931,5.31036"
         style="fill:#1cb4c2;fill-opacity:1;fill-rule:nonzero;stroke:none;stroke-width:0.0352778"
         id="path155" />
      <path
         d="m 574.19597,184.74901 c -13.19954,0.81316 -26.29606,-6.12457 -38.92551,-20.61986 l -1.09996,-1.26294 0.92358,-1.397 c 0.14781,-0.22402 3.7024,-5.55696 10.00583,-11.10051 3.71687,-3.26884 7.62706,-5.93549 11.62262,-7.92621 5.04684,-2.5146 10.2422,-3.95217 15.44108,-4.27214 13.15544,-0.81033 26.2435,5.41867 38.90469,18.51378 l 1.17828,1.2192 -0.87842,1.45097 c -0.14816,0.24483 -3.70416,6.0706 -10.0083,12.12074 -3.72534,3.57329 -7.6447,6.48406 -11.6452,8.65117 -5.07294,2.74603 -10.29405,4.30107 -15.51869,4.6228"
         style="fill:#274ea8;fill-opacity:1;fill-rule:nonzero;stroke:none;stroke-width:0.0352778"
         id="path157" />
      <path
         d="m 536.93028,162.68312 c 0,0 31.2092,-47.23131 72.55405,-4.46864 0,0 -31.33372,51.78072 -72.55405,4.46864"
         style="fill:#f1ecf7;fill-opacity:1;fill-rule:nonzero;stroke:none;stroke-width:0.0352778"
         id="path159" />
      <path
         d="m 588.28944,160.52905 c 0.51153,8.29593 -5.79967,15.43509 -14.09347,15.94627 -8.29663,0.51082 -15.43615,-5.80002 -15.94697,-14.09595 -0.51082,-8.29592 5.80002,-15.43544 14.09594,-15.94626 8.29628,-0.51082 15.4365,5.80002 15.9445,14.09594"
         style="fill:#416fc0;fill-opacity:1;fill-rule:nonzero;stroke:none;stroke-width:0.0352778"
         id="path161" />
      <path
         d="m 580.78233,160.99155 c 0.254,4.14796 -2.90336,7.71772 -7.0485,7.97313 -4.14937,0.25541 -7.71878,-2.90019 -7.97419,-7.0478 -0.25577,-4.14796 2.89983,-7.71772 7.04638,-7.97348 4.14867,-0.25506 7.71878,2.90018 7.97631,7.04815"
         style="fill:#274ea8;fill-opacity:1;fill-rule:nonzero;stroke:none;stroke-width:0.0352778"
         id="path163" />
      <path
         d="m 565.44002,156.9032 c -1.23472,0 -2.27153,-0.96132 -2.34844,-2.2105 -0.0797,-1.29822 0.9077,-2.41547 2.20592,-2.49555 0.0494,-0.003 0.0984,-0.005 0.14711,-0.005 1.23472,0 2.27153,0.96167 2.34879,2.21051 0.0797,1.29857 -0.90805,2.41582 -2.20627,2.4959 -0.049,0.003 -0.0984,0.004 -0.14711,0.004"
         style="fill:#789dd8;fill-opacity:1;fill-rule:nonzero;stroke:none;stroke-width:0.0352778"
         id="path165" />
      <path
         d="m 569.18441,159.03469 c -0.61737,0 -1.1356,-0.48084 -1.17405,-1.10526 -0.0402,-0.64911 0.45403,-1.20791 1.10314,-1.24777 0.0243,-0.002 0.049,-0.002 0.0734,-0.002 0.61737,0 1.1356,0.48084 1.1744,1.10525 0.0399,0.64947 -0.45402,1.20791 -1.10313,1.24778 -0.0247,0.002 -0.0494,0.002 -0.0737,0.002"
         style="fill:#5c7ac5;fill-opacity:1;fill-rule:nonzero;stroke:none;stroke-width:0.0352778"
         id="path167" />
      <path
         d="m 553.84033,196.07565 -3.46039,-2.19357 41.93822,-66.15254 3.46075,2.19357 -41.93858,66.15254"
         style="fill:#f14e3e;fill-opacity:1;fill-rule:nonzero;stroke:none;stroke-width:0.0352778"
         id="path169" />
      <path
         d="M 764.65012,297.84076 H 606.74325 c -5.00945,0 -9.06992,-4.06083 -9.06992,-9.07027 v -99.41843 c 0,-5.0098 4.06047,-9.07062 9.06992,-9.07062 h 157.90687 c 5.00944,0 9.06991,4.06082 9.06991,9.07062 v 99.41843 c 0,5.00944 -4.06047,9.07027 -9.06991,9.07027"
         style="fill:#274ea8;fill-opacity:1;fill-rule:nonzero;stroke:none;stroke-width:0.0352778"
         id="path171" />
      <path
         d="m 764.86531,189.35241 v 99.41737 c 0,0.12065 -0.0988,0.21625 -0.21872,0.21625 H 606.74325 c -0.11995,0 -0.2152,-0.0956 -0.2152,-0.21625 v -99.41737 c 0,-0.1203 0.0952,-0.21625 0.2152,-0.21625 h 157.90334 c 0.11994,0 0.21872,0.096 0.21872,0.21625"
         style="fill:#bfdbee;fill-opacity:1;fill-rule:nonzero;stroke:none;stroke-width:0.0352778"
         id="path173" />
      <path
         d="m 595.40497,306.1014 -20.49992,25.09873 c -1.40406,1.71662 -0.18344,4.29154 2.03553,4.29154 h 218.22129 c 2.23661,0 3.45017,-2.61267 2.01083,-4.32223 l -21.18783,-25.15588 c -1.43581,-1.70533 -3.55247,-2.68958 -5.78203,-2.68958 H 601.25755 c -2.26836,0 -4.41678,1.01953 -5.85258,2.77742"
         style="fill:#274ea8;fill-opacity:1;fill-rule:nonzero;stroke:none;stroke-width:0.0352778"
         id="path175" />
      <path
         d="m 574.30533,326.79182 c 0,0 -1.3335,7.66516 1.778,8.56015 l 12.08264,-8.56015 h -13.86064"
         style="fill:#274ea8;fill-opacity:1;fill-rule:nonzero;stroke:none;stroke-width:0.0352778"
         id="path177" />
      <path
         d="m 797.75479,326.79182 c 0,0 1.3335,7.66516 -1.778,8.56015 l -12.08264,-8.56015 h 13.86064"
         style="fill:#274ea8;fill-opacity:1;fill-rule:nonzero;stroke:none;stroke-width:0.0352778"
         id="path179" />
      <path
         d="m 595.40497,300.61818 -20.49992,25.09873 c -1.40406,1.71697 -0.18344,4.29189 2.03553,4.29189 h 218.22129 c 2.23661,0 3.45017,-2.61267 2.01083,-4.32259 l -21.18783,-25.15587 c -1.43581,-1.70533 -3.55247,-2.68958 -5.78203,-2.68958 H 601.25755 c -2.26836,0 -4.41678,1.01988 -5.85258,2.77742"
         style="fill:#e7f1fa;fill-opacity:1;fill-rule:nonzero;stroke:none;stroke-width:0.0352778"
         id="path181" />
      <path
         d="M 601.74086,301.14135 H 623.285 l -2.21897,3.65089 h -21.96042 l 2.63525,-3.65089"
         style="fill:#274ea8;fill-opacity:1;fill-rule:nonzero;stroke:none;stroke-width:0.0352778"
         id="path183" />
      <path
         d="m 626.06489,301.14135 h 21.54061 l -2.21897,3.65089 h -21.95689 l 2.63525,-3.65089"
         style="fill:#274ea8;fill-opacity:1;fill-rule:nonzero;stroke:none;stroke-width:0.0352778"
         id="path185" />
      <path
         d="m 650.38539,301.14135 h 21.54414 l -2.21897,3.65089 h -21.96042 l 2.63525,-3.65089"
         style="fill:#274ea8;fill-opacity:1;fill-rule:nonzero;stroke:none;stroke-width:0.0352778"
         id="path187" />
      <path
         d="m 673.7675,301.14135 h 21.18431 l 1.55575,3.65089 h -24.80734 l 2.06728,-3.65089"
         style="fill:#274ea8;fill-opacity:1;fill-rule:nonzero;stroke:none;stroke-width:0.0352778"
         id="path189" />
      <path
         d="M 766.57981,301.14135 H 745.0392 l 2.21897,3.65089 h 21.96042 l -2.63878,-3.65089"
         style="fill:#274ea8;fill-opacity:1;fill-rule:nonzero;stroke:none;stroke-width:0.0352778"
         id="path191" />
      <path
         d="M 742.25931,301.14135 H 720.7187 l 2.21897,3.65089 h 21.95689 l -2.63525,-3.65089"
         style="fill:#274ea8;fill-opacity:1;fill-rule:nonzero;stroke:none;stroke-width:0.0352778"
         id="path193" />
      <path
         d="m 717.93528,301.14135 h -21.54061 l 2.21897,3.65089 h 21.96042 l -2.63878,-3.65089"
         style="fill:#274ea8;fill-opacity:1;fill-rule:nonzero;stroke:none;stroke-width:0.0352778"
         id="path195" />
      <path
         d="m 598.22013,307.10117 h 22.57426 l -2.32481,3.6509 h -23.00817 l 2.75872,-3.6509"
         style="fill:#274ea8;fill-opacity:1;fill-rule:nonzero;stroke:none;stroke-width:0.0352778"
         id="path197" />
      <path
         d="m 623.70833,307.10117 h 22.57425 l -2.3248,3.6509 h -23.0117 l 2.76225,-3.6509"
         style="fill:#274ea8;fill-opacity:1;fill-rule:nonzero;stroke:none;stroke-width:0.0352778"
         id="path199" />
      <path
         d="m 649.19653,307.10117 h 22.57425 l -2.32481,3.6509 h -23.01169 l 2.76225,-3.6509"
         style="fill:#274ea8;fill-opacity:1;fill-rule:nonzero;stroke:none;stroke-width:0.0352778"
         id="path201" />
      <path
         d="m 673.70047,307.10117 h 22.19325 l 1.63337,3.6509 h -25.99267 l 2.16605,-3.6509"
         style="fill:#274ea8;fill-opacity:1;fill-rule:nonzero;stroke:none;stroke-width:0.0352778"
         id="path203" />
      <path
         d="m 770.95778,307.10117 h -22.57425 l 2.32481,3.6509 h 23.01169 l -2.76225,-3.6509"
         style="fill:#274ea8;fill-opacity:1;fill-rule:nonzero;stroke:none;stroke-width:0.0352778"
         id="path205" />
      <path
         d="m 745.46959,307.10117 h -22.57425 l 2.3248,3.6509 h 23.0117 l -2.76225,-3.6509"
         style="fill:#274ea8;fill-opacity:1;fill-rule:nonzero;stroke:none;stroke-width:0.0352778"
         id="path207" />
      <path
         d="m 719.98139,307.10117 h -22.57072 l 2.3248,3.6509 h 23.00817 l -2.76225,-3.6509"
         style="fill:#274ea8;fill-opacity:1;fill-rule:nonzero;stroke:none;stroke-width:0.0352778"
         id="path209" />
      <path
         d="m 594.4948,313.06065 h 23.69961 l -2.44122,3.65125 h -24.15822 l 2.89983,-3.65125"
         style="fill:#274ea8;fill-opacity:1;fill-rule:nonzero;stroke:none;stroke-width:0.0352778"
         id="path211" />
      <path
         d="m 621.25653,313.06065 h 23.69961 l -2.44122,3.65125 h -24.15823 l 2.89984,-3.65125"
         style="fill:#274ea8;fill-opacity:1;fill-rule:nonzero;stroke:none;stroke-width:0.0352778"
         id="path213" />
      <path
         d="m 648.01825,313.06065 h 23.69961 l -2.44122,3.65125 h -24.16175 l 2.90336,-3.65125"
         style="fill:#274ea8;fill-opacity:1;fill-rule:nonzero;stroke:none;stroke-width:0.0352778"
         id="path215" />
      <path
         d="m 673.74281,313.06065 h 23.3045 l 1.7145,3.65125 h -27.29089 l 2.27189,-3.65125"
         style="fill:#274ea8;fill-opacity:1;fill-rule:nonzero;stroke:none;stroke-width:0.0352778"
         id="path217" />
      <path
         d="m 775.8614,313.06065 h -23.69962 l 2.44123,3.65125 h 24.15822 l -2.89983,-3.65125"
         style="fill:#274ea8;fill-opacity:1;fill-rule:nonzero;stroke:none;stroke-width:0.0352778"
         id="path219" />
      <path
         d="m 749.1032,313.06065 h -23.70314 l 2.44122,3.65125 h 24.16175 l -2.89983,-3.65125"
         style="fill:#274ea8;fill-opacity:1;fill-rule:nonzero;stroke:none;stroke-width:0.0352778"
         id="path221" />
      <path
         d="m 722.34148,313.06065 h -23.70314 l 2.44122,3.65125 h 24.16175 l -2.89983,-3.65125"
         style="fill:#274ea8;fill-opacity:1;fill-rule:nonzero;stroke:none;stroke-width:0.0352778"
         id="path223" />
      <path
         d="m 688.82053,282.24939 c -0.25753,-0.036 -0.51153,-0.0727 -0.76553,-0.11077 50.14737,-5.65962 59.13614,-56.52982 59.00562,-93.00246 h 8.43844 c -1.37583,37.15632 -12.62944,91.70529 -66.67853,93.11323"
         style="fill:#92bce0;fill-opacity:1;fill-rule:nonzero;stroke:none;stroke-width:0.0352778"
         id="path225" />
      <path
         d="m 743.86798,151.8352 c -40.18845,14.3256 -58.17306,-19.89667 -58.17306,-19.89667 0,0 -17.98109,34.22227 -58.17306,19.89667 0,0 -23.72431,123.76856 58.17306,130.53343 81.90089,-6.76487 58.17306,-130.53343 58.17306,-130.53343"
         style="fill:#f1ecf7;fill-opacity:1;fill-rule:nonzero;stroke:none;stroke-width:0.0352778"
         id="path227" />
      <path
         d="m 741.02812,191.90335 c -0.11995,12.46575 -1.36173,23.88164 -3.69359,33.92911 -2.84339,12.24421 -7.30955,22.43279 -13.27503,30.27927 -4.36033,5.73828 -9.61672,10.32581 -15.62452,13.6331 -6.53698,3.60115 -14.1852,5.81201 -22.74006,6.57683 -3.11503,-0.27834 -6.11364,-0.74965 -8.98172,-1.41111 -4.99887,-1.15041 -9.60262,-2.87655 -13.75481,-5.16572 -6.01133,-3.30729 -11.26772,-7.89482 -15.62806,-13.6331 -5.96547,-7.84648 -10.43164,-18.03506 -13.2715,-30.27927 -2.33186,-10.04747 -3.57717,-21.46336 -3.69711,-33.92911 -0.127,-13.48987 1.10419,-25.32768 2.04964,-32.30986 4.78014,1.17792 9.46856,1.7713 14.00528,1.7713 12.55183,-0.001 24.24289,-4.58753 33.80669,-13.26551 2.15195,-1.95192 3.97228,-3.91266 5.47159,-5.7083 1.4993,1.79564 3.31964,3.75779 5.47158,5.70971 9.56028,8.67657 21.25134,13.2641 33.8067,13.2641 h 0.004 c 1.64394,0 3.30905,-0.0783 4.98827,-0.23495 2.95981,-0.2727 5.969,-0.78599 9.01348,-1.53635 0.94544,6.98076 2.18016,18.81999 2.04964,32.30986"
         style="fill:#274ea8;fill-opacity:1;fill-rule:nonzero;stroke:none;stroke-width:0.0352778"
         id="path229" />
      <path
         d="m 685.69492,276.32166 c -3.11503,-0.27834 -6.11364,-0.74965 -8.98172,-1.41111 11.45469,-5.36151 24.31344,-8.07402 34.25119,-15.86194 10.08239,-7.90082 15.92792,-20.23252 18.45028,-32.79317 2.51883,-12.55924 2.04258,-25.5009 1.55575,-38.3025 -0.33867,-8.92951 -0.44097,-17.90418 -1.00542,-26.8231 2.95981,-0.2727 5.969,-0.78599 9.01348,-1.53635 0.89958,6.63998 2.06022,17.67558 2.06022,30.34594 0,0.65053 -0.004,1.30528 -0.0106,1.96392 -0.11995,12.46575 -1.36173,23.88164 -3.69359,33.92911 -2.84339,12.24421 -7.30955,22.43279 -13.27503,30.27927 -4.36033,5.73828 -9.61672,10.32581 -15.62452,13.6331 -6.53698,3.60115 -14.1852,5.81201 -22.74006,6.57683"
         style="fill:#2549a4;fill-opacity:1;fill-rule:nonzero;stroke:none;stroke-width:0.0352778"
         id="path231" />
      <path
         d="m 711.36656,251.04514 h -48.0307 c -2.48003,0 -4.56494,-1.71027 -5.13644,-4.01638 0.93133,0.8128 2.14841,1.30563 3.48191,1.30563 h 48.0307 c 2.921,0 5.28814,-2.3689 5.28814,-5.2899 v -30.28986 0 -7.36811 c 0,-0.43921 -0.0529,-0.86607 -0.15169,-1.27389 1.10772,0.96979 1.80975,2.39572 1.80975,3.98498 v 7.36812 30.2895 c 0,2.921 -2.36714,5.28991 -5.29167,5.28991 m -2.38831,-50.94853 h -1.65452 v -3.28506 -6.3119 c 0,-3.54895 -0.86078,-6.9014 -2.38126,-9.85944 2.54001,3.54507 4.03578,7.886 4.03578,12.57053 v 6.3119 0.57397 m -37.973,0 h -1.65806 v -3.28506 -6.3119 c 0,-9.01454 7.33426,-16.34879 16.34773,-16.34879 6.46994,0 12.07558,3.7779 14.72494,9.24384 -2.98802,-3.96487 -7.73289,-6.53274 -13.06689,-6.53274 -9.01347,0 -16.34772,7.3339 -16.34772,16.34878 v 6.3119 0.57397"
         style="fill:#27459e;fill-opacity:1;fill-rule:nonzero;stroke:none;stroke-width:0.0352778"
         id="path233" />
      <path
         d="m 702.04617,206.84843 h -32.69898 v -16.34878 c 0,-9.01454 7.33426,-16.34879 16.34773,-16.34879 9.017,0 16.35125,7.33425 16.35125,16.34879 v 16.34878 M 685.69492,168.8726 c -11.92389,0 -21.62528,9.70174 -21.62528,21.62705 v 21.62704 h 43.25409 v -21.62704 c 0,-11.92531 -9.70492,-21.62705 -21.62881,-21.62705"
         style="fill:#f1ecf7;fill-opacity:1;fill-rule:nonzero;stroke:none;stroke-width:0.0352778"
         id="path235" />
      <path
         d="m 715.00017,205.38652 v 37.65797 c 0,2.921 -2.36714,5.2899 -5.28814,5.2899 h -48.0307 c -2.86102,0 -5.19289,-2.27083 -5.28814,-5.10822 -0.004,-0.06 -0.004,-0.1203 -0.004,-0.18168 v -37.65797 c 0,-2.921 2.36714,-5.28991 5.29166,-5.28991 h 48.0307 c 2.921,0 5.28814,2.36891 5.28814,5.28991"
         style="fill:#f7911d;fill-opacity:1;fill-rule:nonzero;stroke:none;stroke-width:0.0352778"
         id="path237" />
      <path
         d="m 693.05739,219.74845 c 0,-4.06611 -3.29494,-7.36282 -7.36247,-7.36282 -4.064,0 -7.36247,3.29671 -7.36247,7.36282 0,2.49696 1.2453,4.70183 3.14677,6.03321 v 7.73395 c 0,2.31986 1.89795,4.21816 4.2157,4.21816 2.32128,0 4.21922,-1.8983 4.21922,-4.21816 v -7.73395 c 1.90147,-1.33138 3.14325,-3.53625 3.14325,-6.03321"
         style="fill:#812c1a;fill-opacity:1;fill-rule:nonzero;stroke:none;stroke-width:0.0352778"
         id="path239" />
      <path
         d="m 709.71203,248.33439 h -48.0307 c -2.86102,0 -5.19289,-2.27083 -5.28814,-5.10822 0.83256,-0.0508 1.67217,-0.0723 2.51884,-0.0723 4.79072,0 9.74372,0.69391 14.44978,0.69391 1.04069,0.0215 2.08844,0.0399 3.13619,0.0399 4.16631,0 8.3432,-0.29175 12.17084,-1.86161 8.61483,-3.53484 13.38791,-12.51268 18.51025,-20.29072 2.16252,-3.28472 4.73427,-6.5973 7.82108,-8.98067 v 30.28986 c 0,2.921 -2.36714,5.2899 -5.28814,5.2899"
         style="fill:#f57e20;fill-opacity:1;fill-rule:nonzero;stroke:none;stroke-width:0.0352778"
         id="path241" />
      <path
         d="m 664.06964,200.09661 h 5.27763 v -3.2851 h -5.27763 z"
         style="fill:#e7def2;fill-opacity:1;fill-rule:nonzero;stroke:none;stroke-width:0.0352778"
         id="path243" />
      <path
         d="m 702.04617,200.09661 h 5.27763 v -3.2851 h -5.27763 z"
         style="fill:#e7def2;fill-opacity:1;fill-rule:nonzero;stroke:none;stroke-width:0.0352778"
         id="path245" />
      <path
         d="m 723.00823,328.29712 h -73.95634 l 3.8735,-8.88929 h 66.20934 l 3.8735,8.88929"
         style="fill:#274ea8;fill-opacity:1;fill-rule:nonzero;stroke:none;stroke-width:0.0352778"
         id="path247" />
      <path
         d="m 742.36162,267.69237 6.70277,10.00372 c 0.635,0.94932 0.381,2.23449 -0.56797,2.87055 -0.94897,0.63571 -2.23308,0.38171 -2.87161,-0.56797 l -6.69925,-10.00372 c -0.63853,-0.94968 -0.38453,-2.2345 0.56444,-2.86985 0.95251,-0.63641 2.23662,-0.38241 2.87162,0.56727"
         style="fill:#f7911d;fill-opacity:1;fill-rule:nonzero;stroke:none;stroke-width:0.0352778"
         id="path249" />
      <path
         d="m 751.74903,261.40481 6.69925,10.00407 c 0.63853,0.94933 0.38453,2.2345 -0.56797,2.8702 -0.94897,0.63571 -2.23308,0.38241 -2.86808,-0.56727 l -6.70278,-10.00372 c -0.635,-0.94967 -0.381,-2.23484 0.56797,-2.87055 0.94897,-0.63606 2.23309,-0.38206 2.87161,0.56727"
         style="fill:#f7911d;fill-opacity:1;fill-rule:nonzero;stroke:none;stroke-width:0.0352778"
         id="path251" />
      <path
         d="m 746.60201,264.03547 5.48569,8.18833 c 0.635,0.94968 0.381,2.23414 -0.56797,2.8702 -0.94897,0.63606 -2.23309,0.38241 -2.87161,-0.56727 l -5.4857,-8.18832 c -0.635,-0.94933 -0.381,-2.23415 0.56797,-2.8702 0.94898,-0.63606 2.23662,-0.38242 2.87162,0.56726"
         style="fill:#f7911d;fill-opacity:1;fill-rule:nonzero;stroke:none;stroke-width:0.0352778"
         id="path253" />
      <path
         d="m 740.50601,272.35679 -0.80787,-1.20755 3.43606,-2.30258 0.85372,1.27105 c -1.16416,0.74154 -2.33539,1.47073 -3.48191,2.23908"
         style="fill:#f57e20;fill-opacity:1;fill-rule:nonzero;stroke:none;stroke-width:0.0352778"
         id="path255" />
      <path
         d="m 745.18031,269.35113 -0.8643,-1.29434 0.8643,1.29434 v 0"
         style="fill:#b1d1e8;fill-opacity:1;fill-rule:nonzero;stroke:none;stroke-width:0.0352778"
         id="path257" />
      <path
         d="m 745.18031,269.35113 -0.8643,-1.29434 3.43605,-2.30294 0.91017,1.35996 c -1.16064,0.74577 -2.32128,1.49225 -3.48192,2.23732"
         style="fill:#f57e20;fill-opacity:1;fill-rule:nonzero;stroke:none;stroke-width:0.0352778"
         id="path259" />
      <path
         d="m 750.00984,266.24739 -0.92781,-1.38501 3.43959,-2.30293 0.73025,1.09044 c -0.889,1.04281 -2.07081,1.84255 -3.24203,2.5975"
         style="fill:#f57e20;fill-opacity:1;fill-rule:nonzero;stroke:none;stroke-width:0.0352778"
         id="path261" />
      <path
         d="m 781.02254,240.97792 c 0.635,0.94861 0.381,2.23343 -0.56798,2.86949 l -41.49372,27.79607 c -0.94897,0.6357 -2.23309,0.38206 -2.87161,-0.56656 -0.635,-0.94968 -0.381,-2.23485 0.56797,-2.87056 l 41.49372,-27.79606 c 0.94898,-0.63606 2.23309,-0.38171 2.87162,0.56762"
         style="fill:#f7911d;fill-opacity:1;fill-rule:nonzero;stroke:none;stroke-width:0.0352778"
         id="path263" />
      <path
         d="m 775.12762,242.43489 c 0,-3.6e-4 0,0 0,0 l 1.40405,-0.9391 v 0 l -1.40405,0.9391"
         style="fill:#ffffff;fill-opacity:1;fill-rule:nonzero;stroke:none;stroke-width:0.0352778"
         id="path265" />
      <path
         d="m 776.88445,246.23924 c -0.0353,-0.0695 -0.0706,-0.13864 -0.10583,-0.20849 -0.47272,-0.95144 -1.13947,-2.24684 -1.651,-3.59586 l 1.40405,-0.9391 c 0.27164,0.5454 0.57856,1.0788 0.92781,1.59632 0.43039,0.647 0.91017,1.25025 1.42875,1.80411 l -2.00378,1.34302"
         style="fill:#f47324;fill-opacity:1;fill-rule:nonzero;stroke:none;stroke-width:0.0352778"
         id="path267" />
      <path
         d="m 779.30098,235.38568 c 0.10231,-1.57515 0.73731,-2.83104 1.79211,-3.5373 1.05481,-0.70626 2.45886,-0.81668 3.95464,-0.31186 1.68628,0.56939 3.24908,1.82316 4.39208,3.52954 1.143,1.70639 1.70745,3.62515 1.59103,5.40386 -0.1023,1.57515 -0.7373,2.83139 -1.79211,3.53765 -1.05481,0.70556 -2.45533,0.81633 -3.95111,0.31186 -1.68981,-0.57045 -3.24908,-1.82351 -4.39208,-3.5299 -1.143,-1.70674 -1.71098,-3.62585 -1.59456,-5.40385 m 12.95753,-3.47451 c -1.58397,-2.02918 -3.6442,-3.53765 -5.88786,-4.29507 -2.74109,-0.92498 -5.43278,-0.64276 -7.5812,0.79516 -2.14489,1.43793 -3.429,3.81918 -3.61597,6.70596 -0.17639,2.68287 0.635,5.51533 2.286,7.97489 1.64394,2.45922 3.95464,4.28766 6.50522,5.14738 0.2787,0.0942 0.55739,0.17604 0.83609,0.24518 2.44827,0.60996 4.81541,0.25083 6.74158,-1.03999 2.14489,-1.43827 3.43253,-3.81952 3.6195,-6.7063 0.17286,-2.68323 -0.63853,-5.51533 -2.286,-7.9749 -0.19756,-0.29315 -0.40217,-0.5782 -0.61736,-0.85231"
         style="fill:#f7911d;fill-opacity:1;fill-rule:nonzero;stroke:none;stroke-width:0.0352778"
         id="path269" />
      <path
         d="m 787.09031,248.77395 v 0 0 0 m -0.004,0 c -0.73378,-3.5e-4 -1.4852,-0.0928 -2.24367,-0.27869 0.75847,0.18556 1.50989,0.27834 2.24367,0.27869"
         style="fill:#a8cce6;fill-opacity:1;fill-rule:nonzero;stroke:none;stroke-width:0.0352778"
         id="path271" />
      <path
         d="m 787.09031,248.77395 c -0.004,0 -0.004,0 -0.004,0 -0.73378,-3.5e-4 -1.4852,-0.0931 -2.24367,-0.27869 -0.0141,-0.004 -0.0282,-0.007 -0.0423,-0.0106 v 0 c 3.37608,-1.06256 6.33588,-3.48368 7.9375,-6.64809 0.46919,-0.92181 0.82902,-1.92017 0.85019,-2.95275 0.0423,-2.27965 -1.57339,-4.38397 -1.37231,-6.65445 0.0106,-0.1076 0.0247,-0.21343 0.0423,-0.31821 0.21519,0.27411 0.4198,0.55916 0.61736,0.85231 1.49931,2.23838 2.30717,4.78579 2.30717,7.24853 0,0.24306 -0.007,0.48507 -0.0212,0.72637 -0.067,1.00436 -0.26458,1.94769 -0.58561,2.81129 -0.60325,1.61854 -1.63336,2.95733 -3.03389,3.89501 v 0 c -0.0141,0.01 -0.0282,0.0187 -0.0423,0.0279 -0.0141,0.008 -0.0247,0.0162 -0.0388,0.0243 -1.29822,0.84737 -2.79047,1.27705 -4.37092,1.27705 v 0"
         style="fill:#f47324;fill-opacity:1;fill-rule:nonzero;stroke:none;stroke-width:0.0352778"
         id="path273" />
      <path
         d="m 614.49377,277.36624 -67.97957,17.7987 -12.57582,-48.03141 65.86573,-17.24554 c 1.16769,-0.3055 2.36008,0.39229 2.667,1.55857 l 12.02266,45.91968"
         style="fill:#f57e19;fill-opacity:1;fill-rule:nonzero;stroke:none;stroke-width:0.0352778"
         id="path275" />
      <path
         d="m 549.5622,235.84747 -15.27563,3.99944 c -1.16629,0.30551 -1.86408,1.49825 -1.55858,2.66418 l 1.21039,4.62244 23.46325,-6.14327 -0.17216,-0.65758 c -0.87877,-3.35597 -4.3113,-5.36398 -7.66727,-4.48521"
         style="fill:#f57e19;fill-opacity:1;fill-rule:nonzero;stroke:none;stroke-width:0.0352778"
         id="path277" />
      <path
         d="m 606.8138,257.64631 -63.90534,16.73225 -6.6608,-25.44057 63.9057,-16.73189 6.66044,25.44021"
         style="fill:#f1ecf7;fill-opacity:1;fill-rule:nonzero;stroke:none;stroke-width:0.0352778"
         id="path279" />
      <path
         d="m 604.31614,251.62404 -61.92309,16.21332 -6.6608,-25.44022 61.92344,-16.21367 6.66045,25.44057"
         style="fill:#e8e2f3;fill-opacity:1;fill-rule:nonzero;stroke:none;stroke-width:0.0352778"
         id="path281" />
      <path
         d="m 592.13825,211.93266 -53.92774,14.11993 -3.15736,5.3968 8.98314,34.30975 58.20551,-15.23964 -10.10355,-38.58684"
         style="fill:#f1ecf7;fill-opacity:1;fill-rule:nonzero;stroke:none;stroke-width:0.0352778"
         id="path283" />
      <path
         d="m 535.05315,231.44939 4.62986,-1.21215 -1.4725,-4.18465 z"
         style="fill:#274ea8;fill-opacity:1;fill-rule:nonzero;stroke:none;stroke-width:0.0352778"
         id="path285" />
      <path
         d="m 542.7617,235.45271 c -0.48754,0 -0.93592,-0.32808 -1.06468,-0.82056 -0.15311,-0.58491 0.20002,-1.18851 0.78493,-1.34162 l 46.54832,-12.18776 c 0.0917,-0.024 0.18698,-0.0356 0.27517,-0.0356 0.49036,0 0.93839,0.32808 1.06539,0.82056 0.15522,0.58455 -0.19756,1.18851 -0.78317,1.34126 l -46.54903,12.18812 c -0.0924,0.024 -0.18556,0.0356 -0.27693,0.0356"
         style="fill:#e3e7f6;fill-opacity:1;fill-rule:nonzero;stroke:none;stroke-width:0.0352778"
         id="path287" />
      <path
         d="m 544.00348,240.19475 c -0.48754,0 -0.93592,-0.32844 -1.06504,-0.82092 -0.1531,-0.58455 0.20003,-1.18815 0.78493,-1.34126 l 46.54868,-12.18776 c 0.0917,-0.0243 0.18697,-0.0356 0.27517,-0.0356 0.49036,0 0.93839,0.32808 1.06539,0.82056 0.15522,0.58455 -0.19756,1.18815 -0.78317,1.34126 l -46.54938,12.18812 c -0.0924,0.024 -0.18521,0.0356 -0.27658,0.0356"
         style="fill:#e3e7f6;fill-opacity:1;fill-rule:nonzero;stroke:none;stroke-width:0.0352778"
         id="path289" />
      <path
         d="m 545.2449,244.93643 c -0.48754,0 -0.93592,-0.32808 -1.06468,-0.82056 -0.15311,-0.58455 0.20003,-1.18815 0.78493,-1.34126 l 46.54868,-12.18777 c 0.0917,-0.0243 0.18344,-0.0356 0.27517,-0.0356 0.49036,0 0.93838,0.32809 1.06538,0.82057 0.15523,0.58455 -0.20108,1.18815 -0.78316,1.34126 l -46.54939,12.18776 c -0.0924,0.0243 -0.18556,0.0356 -0.27693,0.0356"
         style="fill:#e3e7f6;fill-opacity:1;fill-rule:nonzero;stroke:none;stroke-width:0.0352778"
         id="path291" />
      <path
         d="m 546.48633,249.67847 c -0.48719,0 -0.93557,-0.32808 -1.06468,-0.82056 -0.15311,-0.58455 0.20002,-1.18815 0.78493,-1.34126 l 46.54903,-12.18777 c 0.0917,-0.0243 0.18344,-0.0356 0.27516,-0.0356 0.49036,0 0.93839,0.32809 1.06539,0.82021 0.15522,0.58491 -0.20108,1.18851 -0.78316,1.34162 l -46.54974,12.18776 c -0.0924,0.024 -0.18521,0.0356 -0.27693,0.0356"
         style="fill:#e3e7f6;fill-opacity:1;fill-rule:nonzero;stroke:none;stroke-width:0.0352778"
         id="path293" />
      <path
         d="m 547.72846,254.42051 c -0.48789,0 -0.93627,-0.32808 -1.06504,-0.82056 -0.1531,-0.5849 0.20003,-1.18851 0.78458,-1.34161 l 46.54938,-12.18777 c 0.0917,-0.024 0.18345,-0.0356 0.27517,-0.0356 0.48683,0 0.93839,0.32808 1.06539,0.82056 0.10231,0.39582 -0.0247,0.8001 -0.29986,1.06751 l -24.25418,6.3507 c -0.34819,0.0914 -0.67275,0.22719 -0.96873,0.40076 l -21.81049,5.71041 c -0.0921,0.024 -0.18485,0.0356 -0.27622,0.0356"
         style="fill:#e3e7f6;fill-opacity:1;fill-rule:nonzero;stroke:none;stroke-width:0.0352778"
         id="path295" />
      <path
         d="m 548.05654,258.67713 c -0.0674,-0.0998 -0.11959,-0.21237 -0.15169,-0.33514 -0.15311,-0.5849 0.20002,-1.18851 0.78493,-1.34161 l 19.22286,-5.03308 c -0.002,0.32984 0.0388,0.66534 0.1263,0.99977 l -19.9824,5.71006"
         style="fill:#e3e7f6;fill-opacity:1;fill-rule:nonzero;stroke:none;stroke-width:0.0352778"
         id="path297" />
      <path
         d="m 607.91094,240.94017 2.63878,13.16073 4.79425,23.89858 c 0.22578,1.13312 -0.4692,2.24825 -1.5875,2.5407 l -65.07445,17.03811 c -1.11196,0.29104 -2.2599,-0.3309 -2.62326,-1.42275 l -1.31374,-3.94512 -9.18528,-27.59428 c -0.39229,-1.17898 0.27693,-2.44651 1.47109,-2.788 l 31.00811,-8.86107 c -0.53799,-2.05458 0.69144,-4.15572 2.74496,-4.69336 l 34.43535,-9.01629 c 1.21355,-0.31786 2.44475,0.45191 2.69169,1.68275"
         style="fill:#f7911d;fill-opacity:1;fill-rule:nonzero;stroke:none;stroke-width:0.0352778"
         id="path299" />
      <path
         d="m 548.12851,297.6499 c -0.91828,0 -1.76671,-0.58384 -2.06975,-1.49436 l -1.31374,-3.94512 c 0.70449,-0.085 1.4164,-0.15204 2.11102,-0.24482 10.5276,-1.415 20.89185,-4.03896 30.82537,-7.7978 7.15434,-2.70546 14.2875,-6.14398 19.39572,-11.8357 5.03414,-5.60881 8.07156,-13.3156 13.47259,-18.2312 l 4.79425,23.89858 c 0.0282,0.14605 0.0423,0.29174 0.0423,0.43568 -0.004,0.97119 -0.65616,1.85032 -1.62983,2.10502 l -7.22842,1.89265 -8.85472,2.31846 -48.99131,12.827 c -0.18486,0.0483 -0.37042,0.0716 -0.55351,0.0716"
         style="fill:#f6871e;fill-opacity:1;fill-rule:nonzero;stroke:none;stroke-width:0.0352778"
         id="path301" />
      <path
         d="m 647.18569,78.419316 c -0.52211,0.998714 -1.75683,1.383947 -2.75519,0.860778 -0.99836,-0.523522 -1.38289,-1.757539 -0.86078,-2.756253 0.52211,-0.998714 1.75683,-1.383947 2.7552,-0.860425 0.99836,0.523522 1.38641,1.757186 0.86077,2.7559"
         style="fill:#f7911d;fill-opacity:1;fill-rule:nonzero;stroke:none;stroke-width:0.0352778"
         id="path303" />
      <path
         d="m 653.48278,81.718494 c -0.52564,0.998361 -1.76036,1.383947 -2.75873,0.860425 -0.99836,-0.523522 -1.38288,-1.757186 -0.86077,-2.7559 0.52564,-0.998714 1.75683,-1.383948 2.75872,-0.860778 0.99836,0.523522 1.38289,1.757539 0.86078,2.756253"
         style="fill:#f7911d;fill-opacity:1;fill-rule:nonzero;stroke:none;stroke-width:0.0352778"
         id="path305" />
      <path
         d="m 659.77633,85.017319 c -0.52564,0.998714 -1.75683,1.383947 -2.75519,0.860425 -1.00189,-0.523169 -1.38642,-1.757186 -0.86078,-2.7559 0.52211,-0.998714 1.75683,-1.383947 2.7552,-0.860425 0.99836,0.523169 1.38288,1.757186 0.86077,2.7559"
         style="fill:#f7911d;fill-opacity:1;fill-rule:nonzero;stroke:none;stroke-width:0.0352778"
         id="path307" />
      <path
         d="m 666.06989,88.316144 c -0.52211,0.998714 -1.75683,1.383948 -2.7552,0.860778 -0.99836,-0.523522 -1.38288,-1.757539 -0.86077,-2.7559 0.52211,-0.999067 1.75683,-1.3843 2.75519,-0.860778 0.99836,0.523522 1.38642,1.757186 0.86078,2.7559"
         style="fill:#f7911d;fill-opacity:1;fill-rule:nonzero;stroke:none;stroke-width:0.0352778"
         id="path309" />
      <path
         d="m 672.36345,91.615322 c -0.52212,0.998714 -1.75684,1.383948 -2.7552,0.860425 -0.99836,-0.523522 -1.38289,-1.757186 -0.86078,-2.7559 0.52564,-0.998714 1.75684,-1.383947 2.7552,-0.860778 1.00189,0.523523 1.38641,1.757539 0.86078,2.756253"
         style="fill:#f7911d;fill-opacity:1;fill-rule:nonzero;stroke:none;stroke-width:0.0352778"
         id="path311" />
      <path
         d="m 678.66053,94.914148 c -0.52564,0.998713 -1.75683,1.383947 -2.7552,0.860425 -1.00188,-0.52317 -1.38641,-1.757187 -0.86077,-2.755901 0.52211,-0.998714 1.75683,-1.383947 2.75519,-0.860425 0.99836,0.52317 1.38289,1.757187 0.86078,2.755901"
         style="fill:#f7911d;fill-opacity:1;fill-rule:nonzero;stroke:none;stroke-width:0.0352778"
         id="path313" />
      <path
         d="m 643.68261,85.106925 c -0.52564,0.998714 -1.75683,1.383947 -2.75872,0.860778 -0.99836,-0.523523 -1.38289,-1.757539 -0.85725,-2.756253 0.52211,-0.998714 1.75683,-1.383948 2.75519,-0.860425 0.99836,0.523169 1.38289,1.757186 0.86078,2.7559"
         style="fill:#f7911d;fill-opacity:1;fill-rule:nonzero;stroke:none;stroke-width:0.0352778"
         id="path315" />
      <path
         d="m 649.97617,88.40575 c -0.52212,0.998714 -1.75684,1.3843 -2.7552,0.860778 -0.99836,-0.523523 -1.38642,-1.757539 -0.86078,-2.7559 0.52211,-0.998714 1.75684,-1.384301 2.7552,-0.860778 0.99836,0.523522 1.38289,1.757186 0.86078,2.7559"
         style="fill:#f7911d;fill-opacity:1;fill-rule:nonzero;stroke:none;stroke-width:0.0352778"
         id="path317" />
      <path
         d="m 656.26972,91.704928 c -0.52211,0.998714 -1.75683,1.383947 -2.75519,0.860425 -0.99836,-0.523522 -1.38289,-1.757186 -0.86078,-2.7559 0.52564,-0.998714 1.75683,-1.383948 2.75519,-0.860778 0.99837,0.523522 1.38642,1.757539 0.86078,2.756253"
         style="fill:#f7911d;fill-opacity:1;fill-rule:nonzero;stroke:none;stroke-width:0.0352778"
         id="path319" />
      <path
         d="m 662.56681,95.003753 c -0.52564,0.998714 -1.76037,1.383947 -2.75873,0.860778 -0.99836,-0.523522 -1.38289,-1.757539 -0.86077,-2.756253 0.52563,-0.998714 1.76036,-1.383947 2.75872,-0.860425 0.99836,0.523522 1.38289,1.757186 0.86078,2.7559"
         style="fill:#f7911d;fill-opacity:1;fill-rule:nonzero;stroke:none;stroke-width:0.0352778"
         id="path321" />
      <path
         d="m 668.86036,98.302931 c -0.52211,0.998361 -1.75683,1.383947 -2.75519,0.860425 -0.99836,-0.523522 -1.38642,-1.757186 -0.86078,-2.7559 0.52211,-0.998714 1.75683,-1.383947 2.75519,-0.860778 0.99836,0.523522 1.38289,1.757539 0.86078,2.756253"
         style="fill:#f7911d;fill-opacity:1;fill-rule:nonzero;stroke:none;stroke-width:0.0352778"
         id="path323" />
      <path
         d="m 675.15392,101.60176 c -0.52211,0.99871 -1.75684,1.38394 -2.7552,0.86042 -0.99836,-0.52317 -1.38289,-1.75718 -0.86077,-2.755899 0.52211,-0.998714 1.75683,-1.383947 2.75519,-0.860425 0.99836,0.52317 1.38642,1.757184 0.86078,2.755904"
         style="fill:#f7911d;fill-opacity:1;fill-rule:nonzero;stroke:none;stroke-width:0.0352778"
         id="path325" />
      <path
         d="m 640.176,91.794533 c -0.52211,0.998714 -1.75683,1.383948 -2.7552,0.860426 -0.99836,-0.52317 -1.38288,-1.757187 -0.86077,-2.755901 0.52211,-0.998714 1.75683,-1.383947 2.75519,-0.860425 0.99836,0.52317 1.38642,1.757186 0.86078,2.7559"
         style="fill:#f7911d;fill-opacity:1;fill-rule:nonzero;stroke:none;stroke-width:0.0352778"
         id="path327" />
      <path
         d="m 646.47308,95.093359 c -0.52564,0.998714 -1.76036,1.383947 -2.75872,0.860777 -0.99836,-0.523522 -1.38289,-1.757539 -0.86078,-2.756252 0.52564,-0.998714 1.75684,-1.383948 2.75872,-0.860426 0.99837,0.523523 1.38289,1.757187 0.86078,2.755901"
         style="fill:#f7911d;fill-opacity:1;fill-rule:nonzero;stroke:none;stroke-width:0.0352778"
         id="path329" />
      <path
         d="m 652.76664,98.392537 c -0.52564,0.998361 -1.75684,1.383947 -2.7552,0.860425 -1.00189,-0.523523 -1.38641,-1.757187 -0.86077,-2.7559 0.52211,-0.998714 1.75683,-1.383948 2.75519,-0.860778 0.99836,0.523522 1.38289,1.757539 0.86078,2.756253"
         style="fill:#f7911d;fill-opacity:1;fill-rule:nonzero;stroke:none;stroke-width:0.0352778"
         id="path331" />
      <path
         d="m 659.06019,101.69136 c -0.52211,0.99872 -1.75683,1.38395 -2.75519,0.86043 -0.99836,-0.52317 -1.38289,-1.75719 -0.86078,-2.755903 0.52211,-0.998714 1.75684,-1.383948 2.7552,-0.860425 0.99836,0.523169 1.38289,1.757188 0.86077,2.755898"
         style="fill:#f7911d;fill-opacity:1;fill-rule:nonzero;stroke:none;stroke-width:0.0352778"
         id="path333" />
      <path
         d="m 665.35375,104.99019 c -0.52211,0.99871 -1.75683,1.38394 -2.75519,0.86077 -0.99837,-0.52352 -1.38289,-1.75753 -0.86078,-2.75625 0.52564,-0.99871 1.75683,-1.38395 2.75519,-0.86042 1.00189,0.52352 1.38642,1.75718 0.86078,2.7559"
         style="fill:#f7911d;fill-opacity:1;fill-rule:nonzero;stroke:none;stroke-width:0.0352778"
         id="path335" />
      <path
         d="m 671.65083,108.28937 c -0.52563,0.99871 -1.75683,1.38394 -2.75872,0.86042 -0.99836,-0.52352 -1.38289,-1.75719 -0.85725,-2.7559 0.52211,-0.99871 1.75683,-1.38395 2.7552,-0.86078 0.99836,0.52352 1.38289,1.75754 0.86077,2.75626"
         style="fill:#f7911d;fill-opacity:1;fill-rule:nonzero;stroke:none;stroke-width:0.0352778"
         id="path337" />
      <path
         d="m 636.67292,98.482142 c -0.52564,0.998714 -1.75684,1.383948 -2.75873,0.860425 -0.99836,-0.523522 -1.38289,-1.757186 -0.85725,-2.7559 0.52211,-0.998714 1.75684,-1.383947 2.7552,-0.860778 0.99836,0.523523 1.38289,1.757539 0.86078,2.756253"
         style="fill:#f7911d;fill-opacity:1;fill-rule:nonzero;stroke:none;stroke-width:0.0352778"
         id="path339" />
      <path
         d="m 642.96647,101.78097 c -0.52211,0.99871 -1.75683,1.38394 -2.75519,0.86042 -0.99836,-0.52317 -1.38642,-1.75718 -0.86078,-2.755898 0.52211,-0.998714 1.75683,-1.383947 2.75519,-0.860425 0.99836,0.52317 1.38289,1.757183 0.86078,2.755903"
         style="fill:#f7911d;fill-opacity:1;fill-rule:nonzero;stroke:none;stroke-width:0.0352778"
         id="path341" />
      <path
         d="m 649.26003,105.07979 c -0.52211,0.99872 -1.75684,1.3843 -2.7552,0.86078 -0.99836,-0.52352 -1.38289,-1.75754 -0.86078,-2.75625 0.52564,-0.99872 1.75684,-1.38395 2.7552,-0.86043 0.99836,0.52352 1.38642,1.75719 0.86078,2.7559"
         style="fill:#f7911d;fill-opacity:1;fill-rule:nonzero;stroke:none;stroke-width:0.0352778"
         id="path343" />
      <path
         d="m 655.55711,108.37897 c -0.52564,0.99871 -1.76036,1.38395 -2.75872,0.86043 -0.99836,-0.52317 -1.38289,-1.75719 -0.86078,-2.7559 0.52564,-0.99872 1.76036,-1.38395 2.75872,-0.86078 0.99836,0.52352 1.38289,1.75754 0.86078,2.75625"
         style="fill:#f7911d;fill-opacity:1;fill-rule:nonzero;stroke:none;stroke-width:0.0352778"
         id="path345" />
      <path
         d="m 661.85067,111.6778 c -0.52211,0.99871 -1.75684,1.38394 -2.7552,0.86077 -0.99836,-0.52352 -1.38641,-1.75754 -0.86078,-2.75625 0.52212,-0.99871 1.75684,-1.38395 2.7552,-0.86042 0.99836,0.52317 1.38289,1.75718 0.86078,2.7559"
         style="fill:#f7911d;fill-opacity:1;fill-rule:nonzero;stroke:none;stroke-width:0.0352778"
         id="path347" />
      <path
         d="m 668.14422,114.97662 c -0.52211,0.99871 -1.75683,1.3843 -2.75519,0.86078 -0.99836,-0.52352 -1.38289,-1.75754 -0.86078,-2.7559 0.52211,-0.99872 1.75683,-1.3843 2.75519,-0.86078 0.99837,0.52352 1.38642,1.75719 0.86078,2.7559"
         style="fill:#f7911d;fill-opacity:1;fill-rule:nonzero;stroke:none;stroke-width:0.0352778"
         id="path349" />
      <path
         d="m 633.1663,105.1694 c -0.52211,0.99871 -1.75683,1.3843 -2.75519,0.86078 -0.99836,-0.52353 -1.38289,-1.75719 -0.86078,-2.7559 0.52211,-0.99872 1.75683,-1.3843 2.7552,-0.86078 0.99836,0.52352 1.38641,1.75754 0.86077,2.7559"
         style="fill:#f7911d;fill-opacity:1;fill-rule:nonzero;stroke:none;stroke-width:0.0352778"
         id="path351" />
      <path
         d="m 639.46339,108.46858 c -0.52564,0.99871 -1.76036,1.38394 -2.75872,0.86042 -0.99837,-0.52317 -1.38289,-1.75719 -0.86078,-2.7559 0.52564,-0.99871 1.75683,-1.38395 2.75872,-0.86042 0.99836,0.52317 1.38289,1.75718 0.86078,2.7559"
         style="fill:#f7911d;fill-opacity:1;fill-rule:nonzero;stroke:none;stroke-width:0.0352778"
         id="path353" />
      <path
         d="m 645.75694,111.7674 c -0.52564,0.99872 -1.75683,1.38395 -2.75519,0.86078 -1.00189,-0.52352 -1.38642,-1.75754 -0.86078,-2.75625 0.52211,-0.99872 1.75683,-1.38395 2.7552,-0.86043 0.99836,0.52317 1.38288,1.75719 0.86077,2.7559"
         style="fill:#f7911d;fill-opacity:1;fill-rule:nonzero;stroke:none;stroke-width:0.0352778"
         id="path355" />
      <path
         d="m 652.0505,115.06623 c -0.52211,0.99871 -1.75683,1.3843 -2.7552,0.86077 -0.99836,-0.52352 -1.38288,-1.75718 -0.86077,-2.7559 0.52211,-0.99871 1.75683,-1.3843 2.75519,-0.86077 0.99836,0.52352 1.38289,1.75754 0.86078,2.7559"
         style="fill:#f7911d;fill-opacity:1;fill-rule:nonzero;stroke:none;stroke-width:0.0352778"
         id="path357" />
      <path
         d="m 658.34406,118.3654 c -0.52212,0.99872 -1.75684,1.38395 -2.7552,0.86043 -0.99836,-0.52317 -1.38289,-1.75719 -0.86078,-2.7559 0.52564,-0.99871 1.75684,-1.38395 2.7552,-0.86043 1.00189,0.52317 1.38641,1.75719 0.86078,2.7559"
         style="fill:#f7911d;fill-opacity:1;fill-rule:nonzero;stroke:none;stroke-width:0.0352778"
         id="path359" />
      <path
         d="m 664.64114,121.66423 c -0.52564,0.99871 -1.75683,1.38395 -2.75872,0.86078 -0.99836,-0.52352 -1.38289,-1.75754 -0.85725,-2.75626 0.52211,-0.99871 1.75683,-1.38394 2.75519,-0.86042 0.99836,0.52352 1.38289,1.75719 0.86078,2.7559"
         style="fill:#f7911d;fill-opacity:1;fill-rule:nonzero;stroke:none;stroke-width:0.0352778"
         id="path361" />
      <path
         d="m 629.66322,111.85701 c -0.52564,0.99871 -1.75683,1.38394 -2.75872,0.86077 -0.99836,-0.52352 -1.38289,-1.75753 -0.85725,-2.75625 0.52211,-0.99871 1.75683,-1.38395 2.75519,-0.86042 0.99836,0.52352 1.38289,1.75718 0.86078,2.7559"
         style="fill:#f7911d;fill-opacity:1;fill-rule:nonzero;stroke:none;stroke-width:0.0352778"
         id="path363" />
      <path
         d="m 635.95678,115.15618 c -0.52211,0.99872 -1.75684,1.38395 -2.7552,0.86043 -0.99836,-0.52352 -1.38642,-1.75719 -0.86078,-2.7559 0.52211,-0.99871 1.75684,-1.38395 2.7552,-0.86078 0.99836,0.52352 1.38289,1.75754 0.86078,2.75625"
         style="fill:#f7911d;fill-opacity:1;fill-rule:nonzero;stroke:none;stroke-width:0.0352778"
         id="path365" />
      <path
         d="m 642.25033,118.45501 c -0.52211,0.99871 -1.75683,1.38395 -2.75519,0.86043 -0.99836,-0.52317 -1.38289,-1.75719 -0.86078,-2.7559 0.52211,-0.99872 1.75683,-1.38395 2.75519,-0.86043 0.99837,0.52317 1.38642,1.75719 0.86078,2.7559"
         style="fill:#f7911d;fill-opacity:1;fill-rule:nonzero;stroke:none;stroke-width:0.0352778"
         id="path367" />
      <path
         d="m 648.54742,121.75384 c -0.52564,0.99871 -1.76037,1.38394 -2.75873,0.86077 -0.99836,-0.52352 -1.38289,-1.75754 -0.86077,-2.75625 0.52563,-0.99836 1.76036,-1.38395 2.75872,-0.86042 0.99836,0.52352 1.38289,1.75718 0.86078,2.7559"
         style="fill:#f7911d;fill-opacity:1;fill-rule:nonzero;stroke:none;stroke-width:0.0352778"
         id="path369" />
      <path
         d="m 654.84097,125.05301 c -0.52211,0.99872 -1.75683,1.38395 -2.75519,0.86043 -0.99836,-0.52352 -1.38642,-1.75719 -0.86078,-2.7559 0.52211,-0.99872 1.75683,-1.38395 2.75519,-0.86078 0.99837,0.52352 1.38289,1.75754 0.86078,2.75625"
         style="fill:#f7911d;fill-opacity:1;fill-rule:nonzero;stroke:none;stroke-width:0.0352778"
         id="path371" />
      <path
         d="m 661.13453,128.35184 c -0.52211,0.99871 -1.75684,1.38395 -2.7552,0.86078 -0.99836,-0.52353 -1.38289,-1.75754 -0.86077,-2.75626 0.52211,-0.99871 1.75683,-1.38394 2.75519,-0.86042 0.99836,0.52317 1.38642,1.75718 0.86078,2.7559"
         style="fill:#f7911d;fill-opacity:1;fill-rule:nonzero;stroke:none;stroke-width:0.0352778"
         id="path373" />
      <path
         d="m 855.37398,151.39423 h -0.39511 c 0,2.37772 -0.96308,4.52649 -2.52236,6.08541 -1.55575,1.55787 -3.70769,2.52025 -6.08541,2.5206 -2.37773,-3.5e-4 -4.52614,-0.96273 -6.08542,-2.5206 -1.55575,-1.55892 -2.51884,-3.70769 -2.51884,-6.08541 0,-2.37773 0.96309,-4.52685 2.51884,-6.08542 1.55928,-1.55822 3.70769,-2.5206 6.08542,-2.5206 2.37772,0 4.52966,0.96238 6.08541,2.5206 1.55928,1.55857 2.52236,3.70769 2.52236,6.08542 h 0.39511 0.39864 c 0,-5.19148 -4.20864,-9.39977 -9.40152,-9.39977 -5.18937,0 -9.39801,4.20829 -9.39801,9.39977 0,5.19147 4.20864,9.39941 9.39801,9.39976 5.19288,-3.5e-4 9.40152,-4.20829 9.40152,-9.39976 h -0.39864"
         style="fill:#f7911d;fill-opacity:1;fill-rule:nonzero;stroke:none;stroke-width:0.0352778"
         id="path375" />
      <path
         d="m 526.67715,211.37739 h -0.39688 c 0,1.77941 -0.72001,3.38702 -1.88595,4.55365 -1.16663,1.16593 -2.77424,1.88595 -4.55365,1.88595 -1.77977,0 -3.38702,-0.72002 -4.55366,-1.88595 -1.16628,-1.16663 -1.8863,-2.77424 -1.8863,-4.55365 0,-1.77977 0.72002,-3.38702 1.8863,-4.55366 1.16664,-1.16628 2.77389,-1.88595 4.55366,-1.8863 1.77941,3.5e-4 3.38702,0.72002 4.55365,1.8863 1.16594,1.16664 1.88595,2.77389 1.88595,4.55366 h 0.39688 0.39687 c 0,-3.99521 -3.2385,-7.23336 -7.23335,-7.23371 -3.99521,3.5e-4 -7.23336,3.2385 -7.23371,7.23371 3.5e-4,3.99521 3.2385,7.23335 7.23371,7.23335 3.99485,0 7.23335,-3.23814 7.23335,-7.23335 h -0.39687"
         style="fill:#f7911d;fill-opacity:1;fill-rule:nonzero;stroke:none;stroke-width:0.0352778"
         id="path377" />
      <path
         d="m 528.94234,308.92645 c -3.69782,0 -6.69537,-2.99756 -6.69537,-6.69502 0,-3.69782 2.99755,-6.69537 6.69537,-6.69537 3.69781,0 6.69537,2.99755 6.69537,6.69537 0,3.69746 -2.99756,6.69502 -6.69537,6.69502"
         style="fill:#b2caec;fill-opacity:1;fill-rule:nonzero;stroke:none;stroke-width:0.0352778"
         id="path381" />
      <path
         d="m 709.70145,110.91685 c -2.46239,0 -4.45559,-1.99601 -4.45559,-4.45805 0,-2.46239 1.9932,-4.45805 4.45559,-4.45805 2.46239,0 4.45911,1.99566 4.45911,4.45805 0,2.46204 -1.99672,4.45805 -4.45911,4.45805"
         style="fill:#b2caec;fill-opacity:1;fill-rule:nonzero;stroke:none;stroke-width:0.0352778"
         id="path383" />
      <path
         d="m 863.71365,274.02402 c -1.63689,0 -2.96333,-1.3275 -2.96333,-2.96509 0,-1.63725 1.32644,-2.96475 2.96333,-2.96475 1.63689,0 2.96686,1.3275 2.96686,2.96475 0,1.63759 -1.32997,2.96509 -2.96686,2.96509"
         style="fill:#b2caec;fill-opacity:1;fill-rule:nonzero;stroke:none;stroke-width:0.0352778"
         id="path385" />
      <path
         d="m 534.24459,103.79815 c -0.86819,0 -1.57198,-0.70379 -1.57198,-1.57198 0,-0.86818 0.70379,-1.57233 1.57198,-1.57233 0.86818,0 1.57233,0.70415 1.57233,1.57233 0,0.86819 -0.70415,1.57198 -1.57233,1.57198"
         style="fill:#b2caec;fill-opacity:1;fill-rule:nonzero;stroke:none;stroke-width:0.0352778"
         id="path387" />
      <path
         d="m 750.60603,80.489416 c 0,-8.346017 0,-8.346017 0,0 -0.53975,-8.346017 -0.98072,-8.78452 -9.32391,-9.324976 8.34319,0 8.34319,0 0,0 8.34319,-0.540808 8.78416,-0.978958 9.32391,-9.324975 0,8.346017 0,8.346017 0,0 0.53975,8.346017 0.9772,8.784167 9.32392,9.324975 -8.34672,0 -8.34672,0 0,0 -8.34672,0.540456 -8.78417,0.978959 -9.32392,9.324976"
         style="fill:#274ea8;fill-opacity:1;fill-rule:nonzero;stroke:none;stroke-width:0.0352778"
         id="path399" />
    </g>
  </g>
</svg>
