<?xml version="1.0" encoding="UTF-8" standalone="no"?>
<!-- Created with Inkscape (http://www.inkscape.org/) -->

<svg
   width="1200"
   height="1000"
   viewBox="0 0 317.49999 264.58333"
   version="1.1"
   id="svg677"
   inkscape:version="1.2.1 (9c6d41e410, 2022-07-14)"
   sodipodi:docname="privacy.svg"
   xmlns:inkscape="http://www.inkscape.org/namespaces/inkscape"
   xmlns:sodipodi="http://sodipodi.sourceforge.net/DTD/sodipodi-0.dtd"
   xmlns="http://www.w3.org/2000/svg"
   xmlns:svg="http://www.w3.org/2000/svg">
  <sodipodi:namedview
     id="namedview679"
     pagecolor="#ffffff"
     bordercolor="#000000"
     borderopacity="0.25"
     inkscape:showpageshadow="2"
     inkscape:pageopacity="0.0"
     inkscape:pagecheckerboard="0"
     inkscape:deskcolor="#d1d1d1"
     inkscape:document-units="px"
     showgrid="false"
     inkscape:zoom="0.29620861"
     inkscape:cx="0"
     inkscape:cy="746.09579"
     inkscape:window-width="1904"
     inkscape:window-height="1027"
     inkscape:window-x="1608"
     inkscape:window-y="8"
     inkscape:window-maximized="0"
     inkscape:current-layer="layer1" />
  <defs
     id="defs674" />
  <g
     inkscape:label="Layer 1"
     inkscape:groupmode="layer"
     id="layer1">
    <g
       id="g672"
       transform="matrix(0.45418411,0,0,0.46239493,-230.06248,53.143627)">
      <path
         d="m 834.39312,17.52976 h 151.88495 c 3.19617,0 5.78908,-2.592917 5.78908,-5.789083 v -86.180089 c 0,-3.196167 -2.59291,-5.789084 -5.78908,-5.789084 H 834.39312 c -3.1997,0 -5.79261,2.592917 -5.79261,5.789084 v 86.180089 c 0,3.196166 2.59291,5.789083 5.79261,5.789083"
         style="fill:#4d93ff;fill-opacity:1;fill-rule:nonzero;stroke:none;stroke-width:0.0352778"
         id="path25" />
      <path
         d="M 828.60051,-44.897799 H 992.06715 V -61.767634 H 828.60051 v 16.869835"
         style="fill:#0046b3;fill-opacity:1;fill-rule:nonzero;stroke:none;stroke-width:0.0352778"
         id="path27" />
      <path
         d="m 954.62685,-1.2274354 h 24.03475 c 1.52753,0 2.76578,1.24177784 2.76578,2.7693057 v 0 c 0,1.5275279 -1.23825,2.765778 -2.76578,2.765778 h -24.03475 c -1.53106,0 -2.76931,-1.2382501 -2.76931,-2.765778 v 0 c 0,-1.52752786 1.23825,-2.7693057 2.76931,-2.7693057"
         style="fill:#d1f5ff;fill-opacity:1;fill-rule:nonzero;stroke:none;stroke-width:0.0352778"
         id="path29" />
      <path
         d="m 917.66632,-1.2274354 h 24.03122 c 1.52753,0 2.76931,1.24177784 2.76931,2.7693057 v 0 c 0,1.5275279 -1.24178,2.765778 -2.76931,2.765778 h -24.03122 c -1.53106,0 -2.76931,-1.2382501 -2.76931,-2.765778 v 0 c 0,-1.52752786 1.23825,-2.7693057 2.76931,-2.7693057"
         style="fill:#d1f5ff;fill-opacity:1;fill-rule:nonzero;stroke:none;stroke-width:0.0352778"
         id="path31" />
      <path
         d="m 880.70226,-1.2274354 h 24.03475 c 1.52753,0 2.76931,1.24177784 2.76931,2.7693057 v 0 c 0,1.5275279 -1.24178,2.765778 -2.76931,2.765778 h -24.03475 c -1.52753,0 -2.76578,-1.2382501 -2.76578,-2.765778 v 0 c 0,-1.52752786 1.23825,-2.7693057 2.76578,-2.7693057"
         style="fill:#d1f5ff;fill-opacity:1;fill-rule:nonzero;stroke:none;stroke-width:0.0352778"
         id="path33" />
      <path
         d="m 843.74173,-1.2274354 h 24.03475 c 1.52753,0 2.76578,1.24177784 2.76578,2.7693057 v 0 c 0,1.5275279 -1.23825,2.765778 -2.76578,2.765778 h -24.03475 c -1.52753,0 -2.76578,-1.2382501 -2.76578,-2.765778 v 0 c 0,-1.52752786 1.23825,-2.7693057 2.76578,-2.7693057"
         style="fill:#d1f5ff;fill-opacity:1;fill-rule:nonzero;stroke:none;stroke-width:0.0352778"
         id="path35" />
      <path
         d="m 979.76579,-75.26844 v 0 c 1.68628,0 3.05506,1.368778 3.05506,3.055056 v 1.072444 c 0,1.686278 -1.36878,3.051528 -3.05506,3.051528 v 0 c -1.68628,0 -3.05153,-1.36525 -3.05153,-3.051528 v -1.072444 c 0,-1.686278 1.36525,-3.055056 3.05153,-3.055056"
         style="fill:#d1f5ff;fill-opacity:1;fill-rule:nonzero;stroke:none;stroke-width:0.0352778"
         id="path37" />
      <path
         d="m 973.19001,-71.677162 v 0 c 0,1.982611 -1.60866,3.58775 -3.59127,3.58775 h -12.72117 c -1.98261,0 -3.58775,-1.605139 -3.58775,-3.58775 v 0 c 0,-1.982611 1.60514,-3.591278 3.58775,-3.591278 h 12.72117 c 1.98261,0 3.59127,1.608667 3.59127,3.591278"
         style="fill:#d1f5ff;fill-opacity:1;fill-rule:nonzero;stroke:none;stroke-width:0.0352778"
         id="path39" />
      <path
         d="m 974.85865,-35.824354 h -16.43239 c -2.63172,0 -4.76602,2.137833 -4.76602,4.769556 v 14.167556 c 0,2.631722 2.1343,4.766028 4.76602,4.766028 h 16.43239 c 2.63173,0 4.76603,-2.134306 4.76603,-4.766028 v -14.167556 c 0,-2.631723 -2.1343,-4.769556 -4.76603,-4.769556"
         style="fill:#ffbd73;fill-opacity:1;fill-rule:nonzero;stroke:none;stroke-width:0.0352778"
         id="path41" />
      <path
         d="m 573.91681,81.301403 c 6.78956,-8.523112 19.20204,-9.930695 27.72621,-3.139722 8.53758,6.798028 9.94375,19.212279 3.15419,27.735389 -6.80014,8.53722 -19.21334,9.94481 -27.75056,3.14325 -8.52417,-6.78744 -9.92999,-19.201694 -3.12984,-27.738917 z M 557.41104,68.153375 c -3.41595,4.289778 -5.82683,9.055806 -7.26405,14.008806 l 4.28378,1.248833 c -1.36207,4.670778 -1.75048,9.532057 -1.22484,14.276918 l -4.42278,0.500944 c 0.59232,5.231694 2.1837,10.350504 4.7625,15.042444 l 0.87383,-0.47272 3.03777,-1.66511 c 2.24755,4.1028 5.34494,7.84578 9.23643,10.94669 l -2.78342,3.4925 c 4.28872,3.41842 9.05369,5.82789 14.01975,7.25312 l 1.24883,-4.28626 c 4.65949,1.37584 9.52006,1.76389 14.26563,1.23826 l 0.50094,4.42383 c 5.23134,-0.59267 10.36038,-2.19781 15.05338,-4.77661 l -0.0131,-0.0106 -0.6103,-1.13241 -1.5173,-2.76931 c 4.10457,-2.24719 7.83731,-5.33047 10.93717,-9.22161 l 3.49462,2.78342 c 3.41559,-4.28978 5.8367,-9.06639 7.26122,-14.0335 l -4.28378,-1.24884 c 1.37478,-4.660192 1.75295,-9.507359 1.22731,-14.252221 l 4.42313,-0.500944 c -0.59266,-5.231695 -2.19674,-10.361084 -4.7759,-15.053029 l -3.91231,2.141361 c -2.24719,-4.106333 -5.33082,-7.838722 -9.22267,-10.939639 l 2.78306,-3.492501 c -4.28836,-3.414889 -9.06603,-5.838472 -14.03244,-7.260167 l -1.24883,4.282723 c -4.65914,-1.375834 -9.50736,-1.753306 -14.25258,-1.227667 l -0.50094,-4.423834 c -5.2444,0.582084 -10.36003,2.197806 -15.05374,4.776612 l 0.0159,0.03528 1.41146,2.57175 0.71403,1.305278 c -4.10493,2.247194 -7.84861,5.344583 -10.93753,9.221611 z"
         style="fill:none;stroke:#80b2ff;stroke-width:1.56457;stroke-linecap:butt;stroke-linejoin:miter;stroke-miterlimit:10;stroke-dasharray:none;stroke-opacity:1"
         id="path43" />
      <path
         d="m 891.22562,286.5193 c 7.8352,-9.83544 22.15797,-11.45822 31.99342,-3.62302 9.85308,7.84578 11.47586,22.17208 3.64067,32.00753 -7.84578,9.85308 -22.17209,11.47586 -32.02164,3.62655 -9.83898,-7.83519 -11.46176,-22.15797 -3.61245,-32.01106 z m -19.05,-15.16944 c -3.94053,4.94947 -6.72395,10.44575 -8.382,16.16428 l 4.94594,1.44286 c -1.57339,5.38692 -2.02141,10.99608 -1.41464,16.47472 l -5.10469,0.57856 c 0.68439,6.03603 2.51883,11.94153 5.49628,17.35667 l 1.00894,-0.54328 3.50661,-1.92617 c 2.59292,4.73781 6.16656,9.05581 10.65742,12.63297 l -3.2138,4.03225 c 4.94947,3.94053 10.44927,6.72395 16.17839,8.36789 l 1.44286,-4.94241 c 5.37633,1.58397 10.9855,2.03553 16.46061,1.42875 l 0.57855,5.10469 c 6.03603,-0.68439 11.95564,-2.53647 17.37078,-5.51391 l -0.0141,-0.0106 -0.70555,-1.31233 -1.74978,-3.18911 c 4.7378,-2.59645 9.04522,-6.15245 12.62239,-10.64331 l 4.03225,3.21028 c 3.94053,-4.94947 6.73453,-10.46339 8.37847,-16.1925 l -4.94242,-1.44286 c 1.5875,-5.37634 2.02142,-10.96787 1.41464,-16.4465 l 5.1047,-0.57856 c -0.68439,-6.03603 -2.53295,-11.95564 -5.51039,-17.37078 l -4.51556,2.46945 c -2.59291,-4.73428 -6.15244,-9.0417 -10.6433,-12.61887 l 3.2138,-4.03225 c -4.94947,-3.94405 -10.46339,-6.73805 -16.1925,-8.382 l -1.44286,4.94595 c -5.37633,-1.5875 -10.97139,-2.02495 -16.4465,-1.41817 l -0.57856,-5.10469 c -6.05366,0.6738 -11.95564,2.53647 -17.37078,5.51391 l 0.0176,0.0388 1.62984,2.97039 0.82197,1.50283 c -4.73781,2.59292 -9.05581,6.17009 -12.62239,10.64331 z"
         style="fill:none;stroke:#00224d;stroke-width:1.34959;stroke-linecap:butt;stroke-linejoin:miter;stroke-miterlimit:10;stroke-dasharray:none;stroke-opacity:1"
         id="path45" />
      <path
         d="m 824.77992,-75.568301 c 0,-4.289778 3.47839,-7.768167 7.76817,-7.768167 h 28.69847 c 0.06,-0.465667 0.14464,-0.927806 0.14464,-1.411112 v 0 c 0,-5.916083 -4.62491,-10.795 -10.43869,-11.225389 0.0988,-0.740834 0.16933,-1.488722 0.16933,-2.257778 0,-9.221613 -7.47889,-16.700503 -16.7005,-16.700503 -6.9215,0 -12.85875,4.20864 -15.39522,10.20586 -2.06023,-1.83797 -4.76956,-2.96333 -7.75053,-2.96333 -6.44525,0 -11.66989,5.22817 -11.66989,11.673418 h -2.18017 c -6.1983,0 -11.26772,5.069416 -11.26772,11.267722 v 0 c 0,6.198306 5.06942,11.271251 11.26772,11.271251 h 27.35439 v -2.091972"
         style="fill:#cce0ff;fill-opacity:1;fill-rule:nonzero;stroke:none;stroke-width:0.0352778"
         id="path47" />
      <path
         d="m 660.49095,-21.963714 c 3.99697,-23.674919 40.45832,-34.364086 39.74394,-18.912418 l 167.14295,0.980722 c 11.57817,0.06703 20.96559,10.481028 20.97617,23.272751 l 0.34572,439.589359 c 0.0106,13.25386 -9.53911,24.08767 -21.33953,24.18645 l -170.62698,1.46403 c -1.05833,2.22602 -3.04094,4.24744 -6.16408,5.93725 -19.56788,0.4198 -28.95318,-9.24631 -32.38183,-20.17184 -1.11654,-2.93158 -1.72403,-6.17008 -1.69616,-9.5885 0.68298,-5.72205 2.76331,-441.205082 3.9998,-446.757804"
         style="fill:#408bff;fill-opacity:1;fill-rule:nonzero;stroke:none;stroke-width:0.0352778"
         id="path49" />
      <path
         d="m 692.39335,454.62498 195.85483,-1.26294 c 12.22375,-0.0776 22.10858,-11.20423 22.08741,-24.83909 l -0.7373,-452.08122 c -0.0212,-13.148029 -9.74725,-23.826613 -21.73464,-23.865418 l -192.05118,-0.624417 c -12.08052,-0.03881 -21.95971,10.625667 -22.06096,23.833668 l -3.48086,454.169667 c -0.10512,13.69836 9.80194,24.75089 22.1227,24.66975"
         style="fill:#ffffff;fill-opacity:1;fill-rule:nonzero;stroke:none;stroke-width:0.0352778"
         id="path51" />
      <path
         d="m 689.68931,451.33709 c 0.8135,0.10936 1.64641,0.16228 2.47473,0.15523 l 195.79486,-1.48167 c 10.50219,-0.0811 19.0888,-9.83545 19.07117,-21.73464 l -0.67734,-451.583808 c -0.0176,-11.47939 -8.46666,-20.84564 -18.76778,-20.891501 l -192.03812,-0.836084 c -0.30057,0 -0.60396,0.0071 -0.90241,0.02117 -4.8327,0.22225 -9.34896,2.423584 -12.72398,6.19125 -3.45017,3.852334 -5.36928,8.953501 -5.41056,14.379224 l -3.435,454.628279 c -0.0815,10.77383 7.03616,19.86844 16.61443,21.15255"
         style="fill:#000000;fill-opacity:1;fill-rule:nonzero;stroke:none;stroke-width:0.0352778"
         id="path53" />
      <path
         d="m 683.24406,-22.16127 -3.30271,453.04783 220.57291,-1.31938 -0.56092,-451.72845 H 683.24406"
         style="fill:#005cea;fill-opacity:1;fill-rule:nonzero;stroke:none;stroke-width:0.0352778"
         id="path55" />
      <path
         d="m 759.29096,209.64549 h 54.51757 c 4.61434,0 8.38553,-3.77472 8.38553,-8.38905 v 0 c 0,-4.61081 -3.77119,-8.38553 -8.38553,-8.38553 h -54.51757 c -4.61257,0 -8.38694,3.77472 -8.38694,8.38553 v 0 c 0,4.61433 3.77437,8.38905 8.38694,8.38905"
         style="fill:#ff9f34;fill-opacity:1;fill-rule:nonzero;stroke:none;stroke-width:0.0352778"
         id="path57" />
      <path
         d="m 717.81769,147.38021 h 140.96648 c 4.61081,0 8.38553,-3.77119 8.38553,-8.38553 v 0 c 0,-4.61433 -3.77472,-8.38552 -8.38553,-8.38552 H 717.81769 c -4.61292,0 -8.38729,3.77119 -8.38729,8.38552 v 0 c 0,4.61434 3.77437,8.38553 8.38729,8.38553"
         style="fill:#ffffff;fill-opacity:1;fill-rule:nonzero;stroke:none;stroke-width:0.0352778"
         id="path59" />
      <path
         d="m 717.81769,174.39594 h 140.96648 c 4.61081,0 8.38553,-3.77473 8.38553,-8.38906 v 0 c 0,-4.61081 -3.77472,-8.38553 -8.38553,-8.38553 H 717.81769 c -4.61292,0 -8.38729,3.77472 -8.38729,8.38553 v 0 c 0,4.61433 3.77437,8.38906 8.38729,8.38906"
         style="fill:#ffffff;fill-opacity:1;fill-rule:nonzero;stroke:none;stroke-width:0.0352778"
         id="path61" />
      <path
         d="m 832.45989,166.75124 c 0,1.62984 1.32292,2.95275 2.95628,2.95275 1.62984,0 2.95275,-1.32291 2.95275,-2.95275 0,-1.62983 -1.32291,-2.95275 -2.95275,-2.95275 -1.63336,0 -2.95628,1.32292 -2.95628,2.95275"
         style="fill:#80b2ff;fill-opacity:1;fill-rule:nonzero;stroke:none;stroke-width:0.0352778"
         id="path63" />
      <path
         d="m 822.3387,166.75124 c 0,1.62984 1.31939,2.95275 2.95275,2.95275 1.62983,0 2.95275,-1.32291 2.95275,-2.95275 0,-1.62983 -1.32292,-2.95275 -2.95275,-2.95275 -1.63336,0 -2.95275,1.32292 -2.95275,2.95275"
         style="fill:#80b2ff;fill-opacity:1;fill-rule:nonzero;stroke:none;stroke-width:0.0352778"
         id="path65" />
      <path
         d="m 812.21398,166.75124 c 0,1.62984 1.32291,2.95275 2.95275,2.95275 1.62983,0 2.95275,-1.32291 2.95275,-2.95275 0,-1.62983 -1.32292,-2.95275 -2.95275,-2.95275 -1.62984,0 -2.95275,1.32292 -2.95275,2.95275"
         style="fill:#80b2ff;fill-opacity:1;fill-rule:nonzero;stroke:none;stroke-width:0.0352778"
         id="path67" />
      <path
         d="m 802.08925,166.75124 c 0,1.62984 1.32292,2.95275 2.95275,2.95275 1.62984,0 2.95275,-1.32291 2.95275,-2.95275 0,-1.62983 -1.32291,-2.95275 -2.95275,-2.95275 -1.62983,0 -2.95275,1.32292 -2.95275,2.95275"
         style="fill:#80b2ff;fill-opacity:1;fill-rule:nonzero;stroke:none;stroke-width:0.0352778"
         id="path69" />
      <path
         d="m 791.96453,166.75124 c 0,1.62984 1.32292,2.95275 2.95275,2.95275 1.63336,0 2.95275,-1.32291 2.95275,-2.95275 0,-1.62983 -1.31939,-2.95275 -2.95275,-2.95275 -1.62983,0 -2.95275,1.32292 -2.95275,2.95275"
         style="fill:#80b2ff;fill-opacity:1;fill-rule:nonzero;stroke:none;stroke-width:0.0352778"
         id="path71" />
      <path
         d="m 781.84334,166.75124 c 0,1.62984 1.31938,2.95275 2.95275,2.95275 1.62983,0 2.95275,-1.32291 2.95275,-2.95275 0,-1.62983 -1.32292,-2.95275 -2.95275,-2.95275 -1.63337,0 -2.95275,1.32292 -2.95275,2.95275"
         style="fill:#80b2ff;fill-opacity:1;fill-rule:nonzero;stroke:none;stroke-width:0.0352778"
         id="path73" />
      <path
         d="m 771.71791,166.75124 c 0,1.62984 1.32221,2.95275 2.95275,2.95275 1.63054,0 2.95345,-1.32291 2.95345,-2.95275 0,-1.62983 -1.32291,-2.95275 -2.95345,-2.95275 -1.63054,0 -2.95275,1.32292 -2.95275,2.95275"
         style="fill:#80b2ff;fill-opacity:1;fill-rule:nonzero;stroke:none;stroke-width:0.0352778"
         id="path75" />
      <path
         d="m 761.59389,166.75124 c 0,1.62984 1.32186,2.95275 2.95275,2.95275 1.63089,0 2.95275,-1.32291 2.95275,-2.95275 0,-1.62983 -1.32186,-2.95275 -2.95275,-2.95275 -1.63089,0 -2.95275,1.32292 -2.95275,2.95275"
         style="fill:#80b2ff;fill-opacity:1;fill-rule:nonzero;stroke:none;stroke-width:0.0352778"
         id="path77" />
      <path
         d="m 751.46987,166.75124 c 0,1.62984 1.32221,2.95275 2.95311,2.95275 1.63053,0 2.95275,-1.32291 2.95275,-2.95275 0,-1.62983 -1.32222,-2.95275 -2.95275,-2.95275 -1.6309,0 -2.95311,1.32292 -2.95311,2.95275"
         style="fill:#80b2ff;fill-opacity:1;fill-rule:nonzero;stroke:none;stroke-width:0.0352778"
         id="path79" />
      <path
         d="m 755.8489,74.73268 c 0,17.896418 14.50799,32.40617 32.40441,32.40617 17.89642,0 32.40617,-14.509752 32.40617,-32.40617 0,-17.896417 -14.50975,-32.40264 -32.40617,-32.40264 -17.89642,0 -32.40441,14.506223 -32.40441,32.40264"
         style="fill:#ffffff;fill-opacity:1;fill-rule:nonzero;stroke:none;stroke-width:0.0352778"
         id="path81" />
      <path
         d="m 788.20745,73.43093 c -3.16442,0 -6.08542,-1.541639 -7.95161,-3.894667 -1.37584,-1.703916 -2.19075,-3.894666 -2.19075,-6.328833 0,-5.595056 4.54377,-10.219973 10.14236,-10.219973 5.67619,0 10.21997,4.624917 10.21997,10.219973 0,2.434167 -0.80786,4.624917 -2.19075,6.328833 -1.86267,2.353028 -4.78367,3.894667 -8.02922,3.894667"
         style="fill:#005cea;fill-opacity:1;fill-rule:nonzero;stroke:none;stroke-width:0.0352778"
         id="path83" />
      <path
         d="m 770.24612,91.644848 c 0,6.448778 36.02002,6.448778 36.02002,0 l -0.0106,-7.517695 c -1.42169,-10.276417 -33.08209,-10.706806 -36.0165,0 l 0.007,7.517695"
         style="fill:#005cea;fill-opacity:1;fill-rule:nonzero;stroke:none;stroke-width:0.0352778"
         id="path85" />
      <path
         d="m 854.04637,166.57485 c 0,-0.5715 0.4833,-1.0548 1.05833,-1.0548 0.5715,0 1.05834,0.4833 1.05834,1.0548 0,0.39864 -0.22225,0.70556 -0.52917,0.88195 v 1.71803 c 0,0.31044 -0.22225,0.52916 -0.52917,0.52916 -0.31044,0 -0.57503,-0.21872 -0.57503,-0.52916 v -1.71803 c -0.26105,-0.17639 -0.4833,-0.48331 -0.4833,-0.88195 z m 3.16794,-2.11314 h -4.26861 v -0.44802 c 0,-1.21003 0.72672,-2.18017 2.14489,-2.18017 1.4217,0 2.12372,1.03717 2.12372,2.18017 z m -5.9443,0 v 5.94784 c 0,1.02658 7.62353,1.02658 7.62353,0 v -5.94784 h -0.50095 v -0.44802 c 0,-1.82034 -1.48167,-3.302 -3.302,-3.302 -1.81681,0 -3.29847,1.48166 -3.29847,3.302 v 0.44802 h -0.52211"
         style="fill:#4d4d4d;fill-opacity:1;fill-rule:nonzero;stroke:none;stroke-width:0.0352778"
         id="path87" />
      <path
         d="m 855.08353,138.38791 c -0.66675,0 -1.28411,-0.32456 -1.67569,-0.82198 -0.29281,-0.35983 -0.46214,-0.82197 -0.46214,-1.33702 0,-1.18181 0.95603,-2.15548 2.13783,-2.15548 1.19945,0 2.15901,0.97367 2.15901,2.15548 0,0.51505 -0.17287,0.97719 -0.46214,1.33702 -0.39511,0.49742 -1.01248,0.82198 -1.69687,0.82198"
         style="fill:#4d4d4d;fill-opacity:1;fill-rule:nonzero;stroke:none;stroke-width:0.0352778"
         id="path89" />
      <path
         d="m 851.2947,142.22966 c 0,1.36172 7.64117,1.36172 7.64117,0 l -0.0423,-1.5875 c -0.29987,-2.16606 -6.98148,-2.25778 -7.60237,0 l 0.004,1.5875"
         style="fill:#4d4d4d;fill-opacity:1;fill-rule:nonzero;stroke:none;stroke-width:0.0352778"
         id="path91" />
      <path
         d="m 805.70875,141.45707 h 30.88923 c 1.35467,0 2.46239,-1.10772 2.46239,-2.46239 v 0 c 0,-1.35466 -1.10772,-2.46238 -2.46239,-2.46238 h -30.88923 c -1.35466,0 -2.46238,1.10772 -2.46238,2.46238 v 0 c 0,1.35467 1.10772,2.46239 2.46238,2.46239"
         style="fill:#80b2ff;fill-opacity:1;fill-rule:nonzero;stroke:none;stroke-width:0.0352778"
         id="path93" />
      <path
         d="m 764.96362,141.45707 h 30.89205 c 1.35467,0 2.46239,-1.10772 2.46239,-2.46239 v 0 c 0,-1.35466 -1.10772,-2.46238 -2.46239,-2.46238 h -30.89205 c -1.35325,0 -2.46097,1.10772 -2.46097,2.46238 v 0 c 0,1.35467 1.10772,2.46239 2.46097,2.46239"
         style="fill:#80b2ff;fill-opacity:1;fill-rule:nonzero;stroke:none;stroke-width:0.0352778"
         id="path95" />
      <path
         d="m 830.07864,300.51753 v 62.55456 c 0,6.95325 -90.78877,6.95325 -90.78877,0 v -62.55456 h 90.78877"
         style="fill:#ffffff;fill-opacity:1;fill-rule:nonzero;stroke:none;stroke-width:0.0352778"
         id="path97" />
      <path
         d="m 773.4758,324.14659 c 0,5.79966 5.01967,10.49866 11.2074,10.49866 6.19125,0 11.21128,-4.699 11.21128,-10.49866 0,-5.79967 -5.02003,-10.5022 -11.21128,-10.5022 -6.18773,0 -11.2074,4.70253 -11.2074,10.5022"
         style="fill:#005cea;fill-opacity:1;fill-rule:nonzero;stroke:none;stroke-width:0.0352778"
         id="path99" />
      <path
         d="m 784.53856,355.76959 h 0.2928 c 2.45534,0 4.44853,-1.98967 4.44853,-4.445 v -23.94303 h -9.18986 v 23.94303 c 0,2.45533 1.98967,4.445 4.44853,4.445"
         style="fill:#005cea;fill-opacity:1;fill-rule:nonzero;stroke:none;stroke-width:0.0352778"
         id="path101" />
      <path
         d="m 747.24677,296.06194 h 9.1888 v -4.21216 c 0,-14.59442 12.67319,-26.46539 28.24763,-26.46539 15.57866,0 28.25044,11.87097 28.25044,26.46539 v 4.21216 h 9.18987 v -4.21216 c 0,-19.33928 -16.79576,-35.0767 -37.44031,-35.0767 -20.64138,0 -37.43643,15.73742 -37.43643,35.0767 v 4.21216"
         style="fill:#ffffff;fill-opacity:1;fill-rule:nonzero;stroke:none;stroke-width:0.0352778"
         id="path103" />
      <path
         d="m 564.84795,457.27082 h 631.32585 c 1.0407,0 1.8838,-0.84314 1.8838,-1.88384 v 0 c 0,-1.03716 -0.8431,-1.8803 -1.8838,-1.8803 H 564.84795 c -1.03964,0 -1.88243,0.84314 -1.88243,1.8803 v 0 c 0,1.0407 0.84279,1.88384 1.88243,1.88384"
         style="fill:#003c99;fill-opacity:1;fill-rule:nonzero;stroke:none;stroke-width:0.0352778"
         id="path105" />
      <path
         d="m 506.54013,219.71377 v 0 c 0.002,-0.34925 0.002,-0.50447 0.002,-0.53975 0,0.0635 -0.002,0.53975 -0.002,0.53975"
         style="fill:#d9ffff;fill-opacity:1;fill-rule:nonzero;stroke:none;stroke-width:0.0352778"
         id="path107" />
      <path
         d="m 506.54013,219.71377 v 0 c 0.002,-0.34925 0.002,-0.50447 0.002,-0.53975 0,0.0635 -0.002,0.53975 -0.002,0.53975"
         style="fill:#d9ffff;fill-opacity:1;fill-rule:nonzero;stroke:none;stroke-width:0.0352778"
         id="path109" />
      <path
         d="m 716.14412,220.65216 c 0,0 0.002,-0.47625 0.002,-0.54328 -3.5e-4,0.0353 -10e-4,0.1905 -0.002,0.54328 v 0"
         style="fill:#d9ffff;fill-opacity:1;fill-rule:nonzero;stroke:none;stroke-width:0.0352778"
         id="path111" />
      <path
         d="m 716.14412,220.65216 c 0,0 0.002,-0.47625 0.002,-0.54328 -3.5e-4,0.0353 -10e-4,0.1905 -0.002,0.54328 v 0"
         style="fill:#d9ffff;fill-opacity:1;fill-rule:nonzero;stroke:none;stroke-width:0.0352778"
         id="path113" />
      <path
         d="m 611.73,170.46246 c -23.2022,24.8532 -60.22552,45.22259 -99.84353,53.90092 -0.012,2.64584 -0.0776,17.30376 -0.37958,84.87482 -0.40288,90.13472 85.37998,134.18256 98.69805,140.94531 12.90426,-5.94078 99.76944,-49.92159 100.17232,-140.05631 0.30197,-67.57106 0.36759,-82.22898 0.37959,-84.87482 -39.53934,-9.03464 -76.04761,-29.73211 -99.02685,-54.78992"
         style="fill:#ffffff;fill-opacity:1;fill-rule:nonzero;stroke:none;stroke-width:0.0352778"
         id="path115" />
      <path
         d="m 611.52186,180.23794 c -23.91904,21.93925 -57.05687,39.18656 -93.49529,48.58808 l -0.35948,80.39454 c -0.16475,36.78767 14.44978,70.06872 43.43894,98.91889 19.04718,18.95475 39.07367,30.71284 49.23544,36.00098 0.43674,-0.22225 0.91651,-0.47273 1.38853,-0.71967 V 180.42491 c -0.0688,-0.0635 -0.14111,-0.12347 -0.20814,-0.18697"
         style="fill:#80b2ff;fill-opacity:1;fill-rule:nonzero;stroke:none;stroke-width:0.0352778"
         id="path117" />
      <path
         d="m 611.73,180.42491 v 262.99585 c 10.56675,-5.49628 29.77374,-16.85925 48.16722,-34.84034 29.24422,-28.58911 44.15614,-61.73611 44.32018,-98.52378 l 0.35948,-80.39806 C 668.3272,219.96072 635.4349,202.48763 611.73,180.42491"
         style="fill:#4d93ff;fill-opacity:1;fill-rule:nonzero;stroke:none;stroke-width:0.0352778"
         id="path119" />
      <path
         d="m 684.74054,261.00994 c -27.74103,4.27567 -65.51613,29.57689 -89.34733,60.00045 -3.34257,-14.34394 -18.34903,-27.43906 -26.19975,-30.30361 l -23.78604,23.90775 c 14.85159,6.69219 31.08114,25.65753 33.23238,45.07089 l 23.76099,3.683 c 10.01783,-19.79083 35.89056,-67.12303 87.36295,-92.57595 -0.9913,-3.8735 -4.62527,-9.23219 -5.0232,-9.78253"
         style="fill:#0046b3;fill-opacity:1;fill-rule:nonzero;stroke:none;stroke-width:0.0352778"
         id="path121" />
      <path
         d="m 1076.1905,108.30654 67.2783,-0.44802 57.8661,-0.59973 0.2505,8.78064 c -20.1118,7.76817 -35.8987,10.11767 -55.9294,11.60639 -20.2918,6.73806 -47.1593,11.19364 -67.945,12.65414 -18.2703,0.87136 -19.7943,-31.12206 -1.5205,-31.99342"
         style="fill:#f7a594;fill-opacity:1;fill-rule:nonzero;stroke:none;stroke-width:0.0352778"
         id="path123" />
      <path
         d="m 1106.0179,106.40154 c -8.0786,-0.15522 -31.9758,-2.68816 -46.8736,-0.93133 -13.4761,5.53508 -10.1353,29.0442 -3.9581,32.74131 -0.018,0.66322 26.1478,7.96572 52.6238,0.19755 3.9829,-4.66372 2.6353,-27.35439 -1.7921,-32.00753"
         style="fill:#112e59;fill-opacity:1;fill-rule:nonzero;stroke:none;stroke-width:0.0352778"
         id="path125" />
      <path
         d="m 1111.3766,139.33335 c -4.1945,1.49578 -8.135,2.44122 -11.0843,1.23472 -1.7462,0.0847 -3.6936,-35.13314 -1.9438,-35.21428 l 11.0102,-0.52564 c 3.496,-0.1658 5.5139,34.3394 2.0179,34.5052"
         style="fill:#1d498c;fill-opacity:1;fill-rule:nonzero;stroke:none;stroke-width:0.0352778"
         id="path127" />
      <path
         d="m 1194.6498,107.4246 c 1.9579,-9.062862 5.0871,-21.953363 8.8865,-22.13328 0.822,-0.03881 0.9419,0.490361 0.8996,2.903361 -1.8909,16.107839 2.4588,20.478749 0.3563,25.029589 -2.3107,4.41325 -8.6748,4.32505 -8.6748,4.32505 -3.5701,-1.59808 -3.8594,-7.56355 -1.4676,-10.12472"
         style="fill:#f7a594;fill-opacity:1;fill-rule:nonzero;stroke:none;stroke-width:0.0352778"
         id="path129" />
      <path
         d="m 1199.183,105.47021 3.9652,-11.698112 c 0,0 2.5859,0.451556 2.0426,3.545417 -0.5468,3.090335 -1.2065,6.420555 -1.2065,6.420555 0,0 3.1009,6.69925 0.635,9.46856 -2.4694,2.77283 -6.7204,0.0635 -5.4363,-7.73642"
         style="fill:#f7a594;fill-opacity:1;fill-rule:nonzero;stroke:none;stroke-width:0.0352778"
         id="path131" />
      <path
         d="m 1205.1626,112.71274 -0.2999,-0.0952 c 1.3512,-4.22628 -0.9948,-8.75947 -1.016,-8.80534 l -0.028,-0.0494 0.011,-0.0564 c 0.01,-0.0318 0.6667,-3.36197 1.2065,-6.417027 0.2152,-1.224139 -0.042,-2.162528 -0.7655,-2.786945 -0.3881,-0.335139 -0.8114,-0.486833 -1.0196,-0.543277 l -3.9193,11.560529 -0.2964,-0.0988 4.0076,-11.828638 0.1305,0.02117 c 0.028,0.0071 0.6985,0.127 1.3018,0.649111 0.5609,0.483306 1.1641,1.411112 0.8713,3.079751 -0.5009,2.846916 -1.1077,5.933716 -1.1959,6.374686 0.2575,0.51859 2.3248,4.89303 1.0125,8.99584"
         style="fill:#d97b69;fill-opacity:1;fill-rule:nonzero;stroke:none;stroke-width:0.0352778"
         id="path133" />
      <path
         d="m 1197.4473,99.892793 -0.3104,-0.07761 c 0.1411,-0.557389 3.4784,-13.656029 6.3465,-14.672029 l 0.1058,0.296334 c -2.7093,0.963083 -6.1101,14.319251 -6.1419,14.453306"
         style="fill:#d97b69;fill-opacity:1;fill-rule:nonzero;stroke:none;stroke-width:0.0352778"
         id="path135" />
      <path
         d="m 992.39877,455.1224 h 30.95273 c 0.6209,-0.36336 1.0724,-0.77611 1.33,-1.24178 0.4939,-23.02228 2.2577,-34.10656 2.2577,-34.10656 l -21.6005,-0.87841 -4.0605,17.12736 c -6.98502,4.93536 -15.08832,15.52575 -8.87943,19.09939"
         style="fill:#231f20;fill-opacity:1;fill-rule:nonzero;stroke:none;stroke-width:0.0352778"
         id="path137" />
      <path
         d="m 1025.7186,455.53868 h -36.69592 c -0.93133,0 -0.8643,-5.1047 0.067,-5.1047 l 36.48782,0.20461 c 0.9596,0 1.1007,4.90009 0.1411,4.90009"
         style="fill:#231f20;fill-opacity:1;fill-rule:nonzero;stroke:none;stroke-width:0.0352778"
         id="path139" />
      <path
         d="m 1021.9192,213.56486 c -2.1907,17.04269 -11.557,59.13967 -10.548,105.43117 -10.1424,58.99856 -11.2572,71.99489 -12.48838,108.38039 l 30.93858,1.15712 c 4.953,-25.41059 15.1166,-65.5179 19.7203,-104.65154 9.9977,-30.83631 16.5488,-74.78536 19.7697,-109.68214 3.2455,-30.07431 -39.2712,-42.23456 -47.3922,-0.635"
         style="fill:#112e59;fill-opacity:1;fill-rule:nonzero;stroke:none;stroke-width:0.0352778"
         id="path141" />
      <path
         d="m 1014.0064,428.81576 -0.6315,-0.007 c 0.057,-4.19805 12.6295,-146.08176 25.4,-203.60218 l 0.6174,0.13759 c -12.7635,57.48514 -25.3294,199.27712 -25.3859,203.47165"
         style="fill:#231f20;fill-opacity:1;fill-rule:nonzero;stroke:none;stroke-width:0.0352778"
         id="path143" />
      <path
         d="m 1053.013,215.64624 c 4.3569,58.69518 17.2085,108.55326 17.2085,108.55326 -2.5153,40.04734 4.5862,78.50012 9.6379,104.80323 l 29.4323,-0.26105 c 1.7074,-25.75278 -1.9368,-165.1494 -9.5497,-212.42869 -3.6301,-41.80064 -51.9818,-44.03725 -46.729,-0.66675"
         style="fill:#112e59;fill-opacity:1;fill-rule:nonzero;stroke:none;stroke-width:0.0352778"
         id="path145" />
      <path
         d="m 1085.4298,429.00273 c -1.3159,9.4862 -2.2331,16.88747 -1.0795,25.47409 l 48.1365,0.93486 c 0,0 4.5368,-4.6355 -1.7815,-11.59228 -6.3182,-6.95325 -17.4907,-2.92806 -25.4317,-15.08125 l -19.8438,0.26458"
         style="fill:#231f20;fill-opacity:1;fill-rule:nonzero;stroke:none;stroke-width:0.0352778"
         id="path147" />
      <path
         d="m 1134.6741,455.53868 h -51.0929 c -0.9313,0 -0.9313,-5.1047 0,-5.1047 l 50.8882,0.20461 c 0.9561,0 1.1642,4.90009 0.2047,4.90009"
         style="fill:#231f20;fill-opacity:1;fill-rule:nonzero;stroke:none;stroke-width:0.0352778"
         id="path149" />
      <path
         d="m 1102.1303,428.43829 -10.0789,-202.70613 0.6315,-0.0317 10.0789,202.70613 -0.6315,0.0317"
         style="fill:#231f20;fill-opacity:1;fill-rule:nonzero;stroke:none;stroke-width:0.0352778"
         id="path151" />
      <path
         d="m 1099.6362,208.97522 -76.5105,5.83141 c 0.695,-47.90722 -20.9374,-80.98367 -16.4324,-93.32031 6.1842,-16.95097 51.2798,-17.06739 68.4566,-10.45986 6.8191,2.62467 17.9105,17.80117 19.2193,36.8935 0.3669,8.88648 0.4551,14.97895 -0.4128,22.08037 -0.8643,7.10494 5.6798,38.97489 5.6798,38.97489"
         style="fill:#112e59;fill-opacity:1;fill-rule:nonzero;stroke:none;stroke-width:0.0352778"
         id="path153" />
      <path
         d="m 1053.9056,120.56557 c -3.556,-2.82575 -17.7447,-7.18255 -21.5195,-10.27289 l 0.8538,-24.627415 13.9488,-1.358195 c 4.0463,0.335139 8.0927,1.305278 11.5711,2.677583 l 3.1397,16.217197 0.6915,3.51719 c 1.5804,3.46075 -1.5487,7.63412 -8.6854,13.84653"
         style="fill:#f7a594;fill-opacity:1;fill-rule:nonzero;stroke:none;stroke-width:0.0352778"
         id="path155" />
      <path
         d="m 1037.9318,91.239154 c 2.1907,3.369028 11.3524,11.994446 23.9677,11.962696 l -2.7164,-14.029974 -21.2513,2.067278"
         style="fill:#e6836f;fill-opacity:1;fill-rule:nonzero;stroke:none;stroke-width:0.0352778"
         id="path157" />
      <path
         d="m 1068.8069,58.797707 c 1.0936,4.854223 3.3479,15.504585 2.981,20.411724 -0.5609,7.468306 -7.5389,15.751529 -13.6208,16.838084 -7.0449,0.719667 -16.5382,-1.379361 -21.6923,-5.806722 -2.8681,-3.361973 -8.4208,-11.338279 -10.9749,-18.319752 -5.3305,-14.562667 4.9601,-27.329696 18.0128,-30.278918 13.0528,-2.949223 21.8864,2.028472 25.2942,17.155584"
         style="fill:#f7a594;fill-opacity:1;fill-rule:nonzero;stroke:none;stroke-width:0.0352778"
         id="path159" />
      <path
         d="m 1029.8708,81.541292 c -2.7199,-4.790723 0.8961,-6.731 4.8613,-3.012722 -0.6773,-3.615973 -4.8013,-14.20989 -1.1501,-17.720029 4.124,-4.074584 22.2709,-2.303639 32.0182,-12.467168 0,0 -7.2637,-15.931445 -31.115,-6.522861 -26.9346,14.280445 -4.6144,39.72278 -4.6144,39.72278"
         style="fill:#4d261c;fill-opacity:1;fill-rule:nonzero;stroke:none;stroke-width:0.0352778"
         id="path161" />
      <path
         d="m 1033.2469,76.986931 c 2.0638,2.50825 2.1484,5.834944 0.194,7.4295 -1.9544,1.594556 -5.2105,0.85725 -7.2707,-1.651 -2.0638,-2.50825 -2.1484,-5.834945 -0.194,-7.4295 1.9543,-1.598084 5.2105,-0.857251 7.2707,1.651"
         style="fill:#f7a594;fill-opacity:1;fill-rule:nonzero;stroke:none;stroke-width:0.0352778"
         id="path163" />
      <path
         d="m 1065.8259,49.001068 c -3.0303,-0.927806 -39.1265,13.416139 -38.1776,16.097251 0,0 26.1338,0.119944 44.1008,-8.060973 9.8072,-4.466167 -5.9232,-8.036278 -5.9232,-8.036278"
         style="fill:#112e59;fill-opacity:1;fill-rule:nonzero;stroke:none;stroke-width:0.0352778"
         id="path165" />
      <path
         d="m 1022.2085,67.401958 43.8432,-18.478501 -1.4993,-6.20889 -46.4467,19.16289 c 0.9207,2.134306 2.5082,4.448529 4.1028,5.524501"
         style="fill:#1d498c;fill-opacity:1;fill-rule:nonzero;stroke:none;stroke-width:0.0352778"
         id="path167" />
      <path
         d="m 1016.8392,63.260346 c -4.7978,1.827389 -7.366,-1.100666 -2.5223,-6.674556 7.4718,-8.600722 12.5765,-30.59289 23.6749,-34.57928 7.6482,-2.748139 13.4337,6.205362 23.5867,11.768668 4.6073,2.525889 7.1861,5.164667 5.4575,8.262056 -5.2423,3.929945 -45.1732,19.311057 -50.1968,21.223112"
         style="fill:#112e59;fill-opacity:1;fill-rule:nonzero;stroke:none;stroke-width:0.0352778"
         id="path169" />
      <path
         d="m 1047.2804,30.293261 c -0.053,-0.141111 -0.078,-0.215194 -0.092,-0.246944 -1.0866,0.151694 -2.1978,0.144638 -3.242,-0.0035 -1.0407,-0.148167 -2.0179,-0.437445 -2.8399,-0.846667 v 0 0 c 0,0.0035 0,0.0071 -0.01,0.01058 -0.1728,0.423334 -0.3986,0.850195 -0.6632,1.27 -0.3492,0.557389 -0.7831,1.100667 -1.2665,1.612195 -0.2434,0.257528 -0.4974,0.511528 -0.769,0.747889 -0.4057,0.356306 -0.8431,0.691444 -1.3018,0.987778 0.032,0.08467 0.1517,0.405694 0.5504,1.467555 0.081,0.211667 0.1728,0.455084 0.2751,0.73025 0.053,0.137584 0.1059,0.282223 0.1658,0.437445 0.1729,0.465667 0.3775,1.012472 0.6174,1.651 0.321,0.853722 0.7655,1.566333 1.2841,2.166056 0.1694,0.197555 0.3493,0.384528 0.5362,0.557389 0.5574,0.522111 1.1677,0.938389 1.7816,1.262944 0.6103,0.328084 1.2241,0.567972 1.785,0.744361 0.7514,0.236361 1.4076,0.356306 1.8486,0.416278 0.2187,0.03175 0.3845,0.04939 0.4798,0.05292 0.1728,-0.183445 0.635,-0.684389 1.1394,-1.425222 0.2011,-0.299862 0.4093,-0.635001 0.6068,-1.001889 0.099,-0.183445 0.1976,-0.377473 0.2893,-0.578556 0.7373,-1.601611 1.1959,-3.697111 0.3387,-5.972528 -0.9596,-2.561167 -1.3547,-3.615973 -1.517,-4.039306"
         style="fill:#f7bd0c;fill-opacity:1;fill-rule:nonzero;stroke:none;stroke-width:0.0352778"
         id="path171" />
      <path
         d="m 1047.044,35.04165 c 0.6668,1.806223 -0.261,3.813528 -2.0743,4.487334 -1.8168,0.670278 -3.8312,-0.250472 -4.4979,-2.056695 -0.6703,-1.806222 0.2575,-3.813528 2.0743,-4.483806 1.8133,-0.673805 3.8277,0.246945 4.4979,2.053167"
         style="fill:#ffffff;fill-opacity:1;fill-rule:nonzero;stroke:none;stroke-width:0.0352778"
         id="path173" />
      <path
         d="m 1053.5845,113.75696 2.3072,4.82953 0.3528,-5.13292 3.108,8.255 c -0.7726,-1.36878 -3.4079,-2.57175 -3.4079,-2.57175 0,0 -2.8716,1.31586 -4.2615,4.45206 l 1.9014,-9.83192"
         style="fill:#231f20;fill-opacity:1;fill-rule:nonzero;stroke:none;stroke-width:0.0352778"
         id="path175" />
      <path
         d="m 1032.5555,104.36602 c 3.4431,4.44147 14.6438,7.48241 21.029,9.39094 l -1.9014,9.83192 c -7.6729,-2.59292 -17.5931,-5.53156 -22.0381,-14.71084 -1.0054,-2.50119 0.1941,-3.88761 2.9105,-4.51202"
         style="fill:#1d498c;fill-opacity:1;fill-rule:nonzero;stroke:none;stroke-width:0.0352778"
         id="path177" />
      <path
         d="m 1061.9489,102.81732 c -0.3422,1.61572 -0.6068,7.95514 -5.7044,10.63625 l 3.108,8.255 c 7.0308,-4.02166 7.3977,-7.747 6.3182,-13.59253 -0.441,-2.3248 -1.2206,-4.81541 -3.7218,-5.29872"
         style="fill:#1d498c;fill-opacity:1;fill-rule:nonzero;stroke:none;stroke-width:0.0352778"
         id="path179" />
      <path
         d="m 1068.0308,213.36377 c -0.1588,0 -0.2963,-0.11994 -0.314,-0.28222 -0.7831,-7.29897 -1.4217,-16.00553 -2.099,-25.22361 -1.838,-25.11425 -3.9229,-53.57637 -9.966,-68.6047 -0.067,-0.16228 0.014,-0.34572 0.1764,-0.41275 0.1588,-0.0635 0.3457,0.0141 0.4092,0.17639 6.0819,15.12005 8.1704,43.63508 10.0119,68.79167 0.6773,9.21455 1.3123,17.91406 2.099,25.20597 0.018,0.17286 -0.1094,0.32809 -0.2822,0.34925 -0.011,0 -0.021,0 -0.035,0"
         style="fill:#231f20;fill-opacity:1;fill-rule:nonzero;stroke:none;stroke-width:0.0352778"
         id="path181" />
      <path
         d="m 1023.1398,206.95733 c 14.9543,4.01108 73.5965,2.4765 75.9319,0.68791 3.5666,-0.8008 4.3709,12.0262 2.3001,15.11653 -3.1644,4.72723 -78.493,3.97228 -80.8778,0.5715 -2.3848,-3.39725 -1.5805,-17.50836 2.6458,-16.37594"
         style="fill:#231f20;fill-opacity:1;fill-rule:nonzero;stroke:none;stroke-width:0.0352778"
         id="path183" />
      <path
         d="m 1081.0695,137.57652 c -0.018,-0.14464 -0.025,-0.21872 -0.028,-0.254 -1.0653,-0.10936 -2.1096,-0.37395 -3.0621,-0.75847 -0.9489,-0.38453 -1.8027,-0.88548 -2.4835,-1.46403 v 0 0 c 0,0 -0.01,0.004 -0.01,0.007 -0.2646,0.35984 -0.575,0.70909 -0.9243,1.04423 -0.4621,0.4445 -0.9983,0.85725 -1.5733,1.22766 -0.2929,0.18697 -0.5892,0.36689 -0.9032,0.52564 -0.4692,0.24342 -0.956,0.45508 -1.4605,0.63147 0.011,0.0847 0.049,0.41628 0.1764,1.51342 0.025,0.21872 0.057,0.46567 0.088,0.75142 0.018,0.14111 0.035,0.2928 0.053,0.45508 0.056,0.47978 0.12,1.04069 0.1976,1.70392 0.1023,0.87841 0.3563,1.65805 0.702,2.34244 0.1164,0.22931 0.2434,0.44803 0.3775,0.65617 0.4022,0.62089 0.8855,1.15711 1.3864,1.60867 0.501,0.45155 1.0231,0.82197 1.5134,1.1183 0.6527,0.39864 1.2418,0.66675 1.644,0.8255 0.2011,0.0811 0.3528,0.13406 0.4409,0.16228 0.2082,-0.13406 0.762,-0.49742 1.4112,-1.0795 0.261,-0.23636 0.5362,-0.50447 0.8078,-0.80433 0.1376,-0.1517 0.2752,-0.31045 0.4092,-0.47625 1.0725,-1.34409 1.9932,-3.21734 1.7216,-5.56684 -0.3069,-2.63878 -0.4339,-3.72886 -0.4868,-4.16983"
         style="fill:#f7bd0c;fill-opacity:1;fill-rule:nonzero;stroke:none;stroke-width:0.0352778"
         id="path185" />
      <path
         d="m 1085.01,154.71446 -14.7426,1.43581 -0.261,-2.70228 14.739,-1.4358 0.2646,2.70227"
         style="fill:#1d498c;fill-opacity:1;fill-rule:nonzero;stroke:none;stroke-width:0.0352778"
         id="path187" />
      <path
         d="m 1068.4718,256.70605 h -4.5297 l 0.095,-0.38805 c 2.032,-8.5972 2.3106,-29.50634 2.3106,-29.718 l 0.635,0.007 c 0,0.20814 -0.2751,20.58106 -2.2436,29.46753 h 3.2138 c 0.4163,-2.10608 3.235,-16.91922 2.5223,-28.93836 l 0.6315,-0.0388 c 0.7691,12.98928 -2.5506,29.19589 -2.5823,29.35817 l -0.053,0.25047"
         style="fill:#231f20;fill-opacity:1;fill-rule:nonzero;stroke:none;stroke-width:0.0352778"
         id="path189" />
      <path
         d="m 994.57188,159.65688 c 0,0 -5.95489,33.70086 0.11641,45.58595 6.27241,12.28372 64.18791,14.95778 64.18791,14.95778 l 2.0743,-17.43075 -39.9097,-10.12826 8.6677,-25.80922 -35.13662,-7.1755"
         style="fill:#f7a594;fill-opacity:1;fill-rule:nonzero;stroke:none;stroke-width:0.0352778"
         id="path191" />
      <path
         d="m 1009.5896,116.3146 c 0,0 -16.82395,20.52461 -17.50481,49.93217 21.92871,15.98789 36.37841,4.46969 36.37841,4.46969 0,0 11.1196,-29.38991 8.6537,-43.69153 -2.4624,-14.30161 -22.5496,-15.90322 -27.5273,-10.71033"
         style="fill:#112e59;fill-opacity:1;fill-rule:nonzero;stroke:none;stroke-width:0.0352778"
         id="path193" />
      <path
         d="m 992.83268,157.43438 c 2.97039,3.61597 37.04872,10.668 37.75432,6.69925 0.9489,3.79236 0.7479,7.48595 -2.3107,10.93611 -0.8679,5.51039 -37.81781,-0.2928 -36.94998,-5.80319 -2.14489,-3.41136 -1.64394,-7.35542 1.50636,-11.83217"
         style="fill:#1d498c;fill-opacity:1;fill-rule:nonzero;stroke:none;stroke-width:0.0352778"
         id="path195" />
      <path
         d="m 1030.587,164.45113 c -0.053,0 -0.1094,-0.0176 -0.1588,-0.0459 -0.1517,-0.0882 -0.2011,-0.28222 -0.1129,-0.43392 2.4589,-4.1663 4.5226,-9.79664 5.6621,-15.44461 0.032,-0.17286 0.2011,-0.28222 0.3704,-0.24694 0.1729,0.0318 0.2822,0.20108 0.247,0.37041 -1.1501,5.71853 -3.2385,11.41942 -5.7362,15.64217 -0.056,0.10231 -0.1623,0.15875 -0.2716,0.15875"
         style="fill:#231f20;fill-opacity:1;fill-rule:nonzero;stroke:none;stroke-width:0.0352778"
         id="path197" />
      <path
         d="m 1034.6792,161.87938 v 0 c 0,-0.20108 0,-0.28928 0,-0.31044 0,0.0388 0,0.31044 0,0.31044"
         style="fill:#d9ffff;fill-opacity:1;fill-rule:nonzero;stroke:none;stroke-width:0.0352778"
         id="path199" />
      <path
         d="m 1034.6792,161.87938 v 0 c 0,-0.20108 0,-0.28928 0,-0.31044 0,0.0388 0,0.31044 0,0.31044"
         style="fill:#d9ffff;fill-opacity:1;fill-rule:nonzero;stroke:none;stroke-width:0.0352778"
         id="path201" />
      <path
         d="m 1154.8882,163.2023 c 0,0 0,-0.27164 0,-0.31045 0,0.0212 0,0.10936 0,0.31045 v 0"
         style="fill:#d9ffff;fill-opacity:1;fill-rule:nonzero;stroke:none;stroke-width:0.0352778"
         id="path203" />
      <path
         d="m 1154.8882,163.2023 c 0,0 0,-0.27164 0,-0.31045 0,0.0212 0,0.10936 0,0.31045 v 0"
         style="fill:#d9ffff;fill-opacity:1;fill-rule:nonzero;stroke:none;stroke-width:0.0352778"
         id="path205" />
      <path
         d="m 1095.2441,129.94593 c -14.1076,14.84489 -36.5407,26.94164 -60.4979,32.00048 -0.018,1.5875 -0.1129,10.39989 -0.5644,51.00814 -0.6033,54.16903 51.0152,80.98367 59.0303,85.09706 7.814,-3.51719 60.4379,-29.60511 61.0376,-83.77414 0.4515,-40.60826 0.5503,-49.42064 0.568,-51.01167 -23.8372,-5.58448 -45.7976,-18.16806 -59.5736,-33.31987"
         style="fill:#ffffff;fill-opacity:1;fill-rule:nonzero;stroke:none;stroke-width:0.0352778"
         id="path207" />
      <path
         d="m 1095.0359,139.73552 c -13.8006,12.43542 -32.8718,22.15797 -53.8056,27.38614 l -0.508,45.89992 c -0.2364,21.00086 8.0221,40.05439 24.5392,56.63495 10.8514,10.89377 22.292,17.68122 28.1023,20.73628 0.2504,-0.12348 0.5256,-0.26459 0.7973,-0.40217 l 0.9948,-150.14576 c -0.039,-0.0388 -0.081,-0.0741 -0.12,-0.10936"
         style="fill:#007880;fill-opacity:1;fill-rule:nonzero;stroke:none;stroke-width:0.0352778"
         id="path209" />
      <path
         d="m 1095.1559,139.84488 -0.9948,150.14576 c 6.0818,-3.10092 17.1414,-9.51442 27.76,-19.7097 16.8805,-16.21366 25.5553,-35.08022 25.7916,-56.08108 l 0.508,-45.89992 c -20.7539,-5.67267 -39.5534,-15.76917 -53.0648,-28.45506"
         style="fill:#008f99;fill-opacity:1;fill-rule:nonzero;stroke:none;stroke-width:0.0352778"
         id="path211" />
      <path
         d="m 1097.0503,224.89961 -0.067,10.07533 c -0.011,1.34408 -1.1148,2.45181 -2.4624,2.44122 -1.3688,-0.007 -2.4589,-1.12889 -2.4518,-2.47297 l 0.067,-10.10003 c -2.0743,-0.94544 -3.5207,-3.048 -3.5066,-5.461 0.021,-3.29847 2.7375,-5.94078 6.0501,-5.91961 3.3126,0.0212 5.9726,2.69875 5.9479,5.99722 -0.014,2.43417 -1.4676,4.51909 -3.5772,5.43984 z m -26.6171,-19.06059 -0.2328,35.56 c -0.028,3.95817 48.5387,4.27567 48.5669,0.3175 l 0.2328,-35.55647 -48.5669,-0.32103"
         style="fill:#ffffff;fill-opacity:1;fill-rule:nonzero;stroke:none;stroke-width:0.0352778"
         id="path213" />
      <path
         d="m 1114.7668,203.59536 -4.9142,-0.0317 0.014,-2.39537 c 0.056,-8.2938 -6.6816,-15.0883 -15.0142,-15.14122 -8.3326,-0.0564 -15.1589,6.64986 -15.2153,14.94367 l -0.014,2.39536 -4.9177,-0.0317 0.018,-2.39536 c 0.071,-10.99256 9.1158,-19.87903 20.1612,-19.80848 11.0455,0.0741 19.9708,9.07698 19.9002,20.07306 l -0.018,2.39184"
         style="fill:#ffffff;fill-opacity:1;fill-rule:nonzero;stroke:none;stroke-width:0.0352778"
         id="path215" />
    </g>
  </g>
</svg>
