<svg id="Capa_1" data-name="Capa 1" xmlns="http://www.w3.org/2000/svg" xmlns:xlink="http://www.w3.org/1999/xlink" viewBox="0 0 2000 500"><defs><style>.cls-1{fill:url(#Degradado_sin_nombre_15);}.cls-2{fill:none;stroke:#e5e4e4;stroke-miterlimit:10;stroke-width:17px;}.cls-3{fill:#363638;}</style><radialGradient id="Degradado_sin_nombre_15" cx="250" cy="250" r="250" gradientUnits="userSpaceOnUse"><stop offset="0" stop-color="#226db5"/><stop offset="0.39" stop-color="#2167b0"/><stop offset="0.91" stop-color="#1d56a2"/><stop offset="1" stop-color="#1c529f"/></radialGradient></defs><circle class="cls-1" cx="250" cy="250" r="250"/><path class="cls-2" d="M142.34,157.07l.19,137.44s12.61,71.58,106.8,99.54c.47,0,87.78-26.32,102-80L272,274.94l21.18-40.43,106.29,55.1s1.77,100.6-149.43,145c-.08,0-132.92-33.17-150.46-137.34C99,297,99.34,127.6,99.34,127.6L250,79.67l150.71,48.84v114l-43.08-22.07.13-62.77-107.37-30Z"/><path class="cls-3" d="M697.57,201.26c0,1.76-1,2.64-2.9,2.64q-5,0-39.68-2-.79,33.36-.8,46.54,0,15.55,1.26,46.8t1.25,46.8c0,1.67-.4,2.73-1.19,3.16a15.25,15.25,0,0,1-3.69.66,187.93,187.93,0,0,1-23.2,1.06q-17,0-23.86-1.06c-2.47-.43-3.7-1.8-3.7-4.08q0-15.56,1.32-46.67t1.32-46.67q0-10.29-1.05-45.88-26.37,2.64-42.06,2.63c-1.41,0-2.11-.43-2.11-1.31a77.16,77.16,0,0,1,1.85-10.15q2.1-9.24,2.37-11.21.39-6.19.92-12.39.93-9.9,3.17-9.89c.17,0,.79,0,1.84.13q21.36,2.78,63.15,2.77,11.87,0,43.77-2.51l17.27-1.31q2.64,0,3,.33c.27.22.44,1.07.53,2.57,0,2.37-.09,5.67-.26,9.88q-.27,7-.27,9.89a79.72,79.72,0,0,0,.86,9.69A79.72,79.72,0,0,1,697.57,201.26Z"/><path class="cls-3" d="M869.09,281.15q0,33.62-8,45.88-14.77,22.41-73.7,22.41-26.64,0-41-4.08-22.94-6.6-29.8-25.18-3.42-9.1-3.42-32.44,0-5.4.39-16.08t.4-16q0-15.3-1.45-45.88T711,164.08c0-2.11.92-3.16,2.76-3.16q8.06,0,24.33.66t24.32.66c2.2,0,3.3,1,3.3,2.9q0,17.4-1.12,52.14t-1.12,52.14q0,20.7,4.35,27.95,5.79,9.88,24.26,9.89,27,0,27-26.24,0-19.11-.92-57.35t-.92-57.35c0-2.72,1.09-4.08,3.29-4.08q7.78,0,23.47-.66t23.47-.66c2.54,0,3.82,1.05,3.82,3.16q0,15.16-1.25,45.75t-1.26,45.88q0,4.21.14,12.72T869.09,281.15Z"/><path class="cls-3" d="M1068.55,341.67q.27,3.56-3.69,3.55-2.5,0-14.43-2.9t-14.7-3.95q-27.56,10.81-52.87,10.81-40.74,0-66.84-27.16-25.85-26.76-25.84-67.63,0-41.79,25.05-69.35,25.85-28.47,67.1-28.47a94.05,94.05,0,0,1,37.71,7.64q19.11,8.44,30.06,23.73,2.24,3.17,2.24,4.49,0,4.22-11.8,18.91T1025.31,226c-.52,0-2.55-1.8-6.06-5.4a55.5,55.5,0,0,0-13.19-10,45.92,45.92,0,0,0-22.14-5.41q-19.78,0-31.38,14.77-10.81,13.58-10.81,33.88,0,21.5,11.21,34,11.59,12.92,32.82,12.92,13.46,0,30.06-6.73-.39-4.35-2.37-22.15a185.49,185.49,0,0,1-1.72-22.14c0-1.67.57-2.68,1.72-3a6.29,6.29,0,0,1,2.11-.26q3.83,0,11.53.72t11.67.73q4.21,0,12.66-.59t12.65-.6q3.3,0,3.3,4.35,0,6.33-.73,19.12t-.72,19.12q0,17,2.5,50.88Z"/><path class="cls-3" d="M1244.42,281.15q0,33.62-8,45.88-14.76,22.41-73.69,22.41-26.64,0-41-4.08-22.95-6.6-29.8-25.18-3.44-9.1-3.43-32.44,0-5.4.4-16.08t.39-16q0-15.3-1.45-45.88t-1.45-45.75c0-2.11.93-3.16,2.77-3.16q8,0,24.33.66t24.32.66c2.19,0,3.29,1,3.29,2.9q0,17.4-1.12,52.14t-1.12,52.14q0,20.7,4.35,27.95,5.8,9.88,24.26,9.89,27,0,27-26.24,0-19.11-.92-57.35t-.93-57.35q0-4.08,3.3-4.08,7.77,0,23.47-.66t23.46-.66q3.83,0,3.83,3.16,0,15.16-1.26,45.75t-1.25,45.88q0,4.21.13,12.72T1244.42,281.15Z"/><path class="cls-3" d="M1444.29,342.59q0,2.37-3.3,3.29-3.95,1.06-24.52,1.06-18.85,0-24.26-1.06-4.49-.92-5.67-5.93-4.49-19-7-20.3-2.11-.93-35.34-.92-22.41,0-23.86,1.18-2.23,2.11-5,14.11-2.5,10.94-6.06,11.86-4.49,1.06-30.06,1.06-20.18,0-20.17-3.82,0-3.44,29.79-84.25,32.3-87.41,35.07-96.11,1.59-5,3.69-5c2.38,0,6,.22,11,.66s8.68.66,11.14.66,5.87-.15,10.48-.46,8.06-.46,10.35-.46q2.51,0,4.62,4.35,6.45,13.84,37.7,94.92Q1444.29,339,1444.29,342.59Zm-93.47-120.1q-2.77,5.79-9.36,25.18-7.12,20.57-7.12,24.12c0,1.58,2.63,2.46,7.91,2.64q4.08.27,13.44.26,8.7,0,9.63-2.11a5.25,5.25,0,0,0,.26-1.84q0-4.35-6.06-24Q1353.58,227.77,1350.82,222.49Z"/><path class="cls-3" d="M1614.88,344.57c0,.61-.88,1.05-2.63,1.31q-5,.8-25.18.79-17.28,0-23.47-.79a13.16,13.16,0,0,1-3.3-.66,5.86,5.86,0,0,1-1.84-2.63q-2-5.14-5.8-15.3-5.15-13.17-16.09-38.89-2.37-5.13-10.94-5.67,4,.27-13.58.27-2,0-2,6.72,0,9,1.65,26.76t1.65,26.77c0,1.49-.4,2.37-1.19,2.63l-3.69.27q-7.79.53-24.26.52-18.86,0-22.67-.79t-3.83-4.08q0-14.51,1.39-43.77t1.38-43.9q0-55.77-2.5-87l-.13-1.84c-.09-1.49,1.29-2.51,4.15-3s16.28-1.06,40.27-1.59q24.39-.53,38.9-.52,30.06,0,49,13.58,21.48,15.28,21.49,44.16,0,19.24-5.54,30.72t-20.43,22.28c-2,1.41-3,2.72-3,3.95q0-.12,16.09,33.1T1614.88,344.57Zm-55.37-118.26q0-16.08-10.55-22.28-8.16-4.75-25.57-4.75-12.53,0-13.32,3.83-.78,4.47-.79,25.84c0,2,0,5,.13,9s.14,6.9.14,8.83c0,.44,1.4.88,4.22,1.32a115.52,115.52,0,0,0,16.87,1.19Q1559.52,249.25,1559.51,226.31Z"/><path class="cls-3" d="M1801.83,252.41q0,38.76-24.92,67.24-22,25.44-61.83,26.76-7.65.27-42.06.26-6.46,0-19.44-.39t-19.45-.4q-3.83,0-3.82-3,0-14.5,1.12-43.57t1.12-43.57q0-15.17-1.12-45.42T1630.31,165q0-2.76,3.82-3.29,9.36-1.05,30.72-1.06,40.61,0,52.6,1.19,31.24,3.16,48.91,15.82,16.62,11.86,26.24,33.22A98.85,98.85,0,0,1,1801.83,252.41Zm-50.5,0q0-22.28-13.31-36.38-13.45-14.64-35.6-14.64-20.3,0-20.3,5.41,0,7.77-.26,23.4t-.27,23.4q0,7.65.27,23t.26,23.14q0,5.67,21.09,5.67,22.82,0,35.86-15.16Q1751.34,275.88,1751.33,252.41Z"/><path class="cls-3" d="M1996.15,342.59q0,2.37-3.29,3.29-4,1.06-24.52,1.06-18.85,0-24.26-1.06-4.49-.92-5.67-5.93-4.48-19-7-20.3-2.12-.93-35.33-.92-22.41,0-23.86,1.18-2.25,2.11-5,14.11-2.51,10.94-6.07,11.86-4.49,1.06-30.06,1.06-20.16,0-20.17-3.82,0-3.44,29.8-84.25,32.29-87.41,35.07-96.11,1.57-5,3.69-5,3.55,0,11,.66t11.14.66q3.55,0,10.48-.46t10.35-.46q2.49,0,4.61,4.35,6.47,13.84,37.71,94.92Q1996.15,339,1996.15,342.59Zm-93.47-120.1q-2.76,5.79-9.36,25.18-7.12,20.57-7.12,24.12,0,2.37,7.91,2.64,4.1.27,13.45.26,8.7,0,9.62-2.11a5,5,0,0,0,.27-1.84q0-4.35-6.07-24Q1905.46,227.77,1902.68,222.49Z"/></svg>